<?xml version="1.0" encoding="UTF-8"?>
<!DOCTYPE svg PUBLIC "-//W3C//DTD SVG 1.1//EN" "http://www.w3.org/Graphics/SVG/1.1/DTD/svg11.dtd">
<svg xmlns="http://www.w3.org/2000/svg" version="1.1" width="313px" height="171px" style="shape-rendering:geometricPrecision; text-rendering:geometricPrecision; image-rendering:optimizeQuality; fill-rule:evenodd; clip-rule:evenodd" xmlns:xlink="http://www.w3.org/1999/xlink">
<g><path style="opacity:0.51" fill="#7ea1d5" d="M 161.5,21.5 C 154.978,21.1765 148.645,21.5098 142.5,22.5C 141.957,22.44 141.624,22.1067 141.5,21.5C 148.322,20.1819 154.989,20.1819 161.5,21.5 Z"/></g>
<g><path style="opacity:1" fill="#2554b2" d="M 161.5,21.5 C 174.23,22.1874 186.23,25.5207 197.5,31.5C 196.791,32.404 195.791,32.7373 194.5,32.5C 186.5,32.5 178.5,32.5 170.5,32.5C 165.5,32.5 160.5,32.5 155.5,32.5C 154.448,32.6495 153.448,32.4828 152.5,32C 149.271,28.6014 145.938,25.4347 142.5,22.5C 148.645,21.5098 154.978,21.1765 161.5,21.5 Z"/></g>
<g><path style="opacity:1" fill="#3059b4" d="M 147.5,33.5 C 143.167,34.1667 138.833,34.8333 134.5,35.5C 129.537,36.4964 124.537,36.6631 119.5,36C 118.934,35.0053 118.267,34.172 117.5,33.5C 117.672,32.5084 117.338,31.8417 116.5,31.5C 116.5,30.8333 116.167,30.5 115.5,30.5C 115.5,29.8333 115.167,29.5 114.5,29.5C 114.5,28.8333 114.167,28.5 113.5,28.5C 113.414,27.5041 113.748,26.6708 114.5,26C 123.06,21.8963 131.726,21.5629 140.5,25C 143.423,27.4162 145.757,30.2496 147.5,33.5 Z"/></g>
<g><path style="opacity:1" fill="#7692cf" d="M 54.5,55.5 C 72.9357,49.6154 89.2691,40.1154 103.5,27C 110.615,22.6266 118.281,20.2933 126.5,20C 119.87,21.5432 113.537,23.8765 107.5,27C 92.4289,41.2041 74.7623,50.7041 54.5,55.5 Z"/></g>
<g><path style="opacity:1" fill="#4164ba" d="M 113.5,28.5 C 114.167,28.5 114.5,28.8333 114.5,29.5C 115.167,29.5 115.5,29.8333 115.5,30.5C 116.167,30.5 116.5,30.8333 116.5,31.5C 116.328,32.4916 116.662,33.1583 117.5,33.5C 117.5,34.5 117.5,35.5 117.5,36.5C 111.143,36.4763 104.81,36.8096 98.5,37.5C 101.672,32.662 106.005,29.3287 111.5,27.5C 112.183,27.8627 112.85,28.1961 113.5,28.5 Z"/></g>
<g><path style="opacity:0.475" fill="#b5cae7" d="M 155.5,32.5 C 160.5,32.5 165.5,32.5 170.5,32.5C 171.919,33.4511 173.585,33.7845 175.5,33.5C 175.167,34.1667 174.833,34.8333 174.5,35.5C 171.15,35.665 167.817,35.4983 164.5,35C 164.833,34.6667 165.167,34.3333 165.5,34C 161.975,33.8213 158.641,33.3213 155.5,32.5 Z"/></g>
<g><path style="opacity:0.798" fill="#4e80c6" d="M 175.5,33.5 C 181.833,33.5 188.167,33.5 194.5,33.5C 195.791,33.2627 196.791,33.596 197.5,34.5C 192.637,34.1805 187.97,34.5139 183.5,35.5C 180.5,35.5 177.5,35.5 174.5,35.5C 174.833,34.8333 175.167,34.1667 175.5,33.5 Z"/></g>
<g><path style="opacity:0.431" fill="#b0c6e5" d="M 197.5,31.5 C 200.557,32.6326 203.557,33.6326 206.5,34.5C 203.5,34.5 200.5,34.5 197.5,34.5C 196.791,33.596 195.791,33.2627 194.5,33.5C 194.5,33.1667 194.5,32.8333 194.5,32.5C 195.791,32.7373 196.791,32.404 197.5,31.5 Z"/></g>
<g><path style="opacity:0.482" fill="#7da0d4" d="M 147.5,33.5 C 148.043,33.56 148.376,33.8933 148.5,34.5C 143.88,35.4933 139.214,35.8266 134.5,35.5C 138.833,34.8333 143.167,34.1667 147.5,33.5 Z"/></g>
<g><path style="opacity:1" fill="#385eb7" d="M 183.5,35.5 C 187.97,34.5139 192.637,34.1805 197.5,34.5C 200.5,34.5 203.5,34.5 206.5,34.5C 216.052,34.5372 225.385,35.8706 234.5,38.5C 229.5,39.1667 224.5,39.8333 219.5,40.5C 219.5,41.1667 219.5,41.8333 219.5,42.5C 219.66,44.153 220.326,45.4863 221.5,46.5C 221.5,47.1667 221.167,47.5 220.5,47.5C 219.5,46.8333 218.5,46.1667 217.5,45.5C 216.415,43.4131 214.749,42.0798 212.5,41.5C 212.027,40.0937 211.027,39.427 209.5,39.5C 200.771,38.3266 192.105,36.9933 183.5,35.5 Z"/></g>
<g><path style="opacity:0.224" fill="#bed1e9" d="M 98.5,37.5 C 97.8333,38.1667 97.8333,38.1667 98.5,37.5 Z"/></g>
<g><path style="opacity:0.247" fill="#93b0db" d="M 209.5,39.5 C 211.027,39.427 212.027,40.0937 212.5,41.5C 210.374,41.8499 208.041,41.8499 205.5,41.5C 206.833,40.8333 208.167,40.1667 209.5,39.5 Z"/></g>
<g><path style="opacity:1" fill="#2052b1" d="M 239.5,40.5 C 246.439,41.7571 249.439,45.7571 248.5,52.5C 247.702,52.0431 247.369,51.3764 247.5,50.5C 245.804,46.9776 245.138,47.6442 245.5,52.5C 240.833,52.5 236.167,52.5 231.5,52.5C 228.812,52.8342 226.479,52.1675 224.5,50.5C 224.5,50.1667 224.5,49.8333 224.5,49.5C 224.5,48.8333 224.167,48.5 223.5,48.5C 223.5,48.1667 223.5,47.8333 223.5,47.5C 223.5,46.8333 223.167,46.5 222.5,46.5C 222.5,46.1667 222.5,45.8333 222.5,45.5C 221.766,44.2921 221.433,42.9587 221.5,41.5C 227.756,41.4721 233.756,41.1388 239.5,40.5 Z"/></g>
<g><path style="opacity:0.514" fill="#94b0db" d="M 234.5,38.5 C 236.403,38.7959 238.07,39.4625 239.5,40.5C 233.756,41.1388 227.756,41.4721 221.5,41.5C 221.158,40.6618 220.492,40.3284 219.5,40.5C 224.5,39.8333 229.5,39.1667 234.5,38.5 Z"/></g>
<g><path style="opacity:1" fill="#3b61b8" d="M 205.5,41.5 C 208.041,41.8499 210.374,41.8499 212.5,41.5C 213.086,43.8398 214.086,46.0065 215.5,48C 214.944,48.3826 214.611,48.8826 214.5,49.5C 210.283,51.1526 207.116,49.8193 205,45.5C 204.517,46.448 204.351,47.448 204.5,48.5C 198.649,50.5526 194.315,48.8859 191.5,43.5C 191.977,42.5224 192.643,41.6891 193.5,41C 197.505,39.9019 201.005,40.7352 204,43.5C 204.278,42.5842 204.778,41.9175 205.5,41.5 Z"/></g>
<g><path style="opacity:0.129" fill="#acc2e3" d="M 221.5,41.5 C 221.433,42.9587 221.766,44.2921 222.5,45.5C 221.833,45.5 221.5,45.8333 221.5,46.5C 220.326,45.4863 219.66,44.153 219.5,42.5C 220.167,42.1667 220.833,41.8333 221.5,41.5 Z"/></g>
<g><path style="opacity:0.545" fill="#85a5d6" d="M 212.5,41.5 C 214.749,42.0798 216.415,43.4131 217.5,45.5C 217.509,47.3084 217.009,48.9751 216,50.5C 215.617,49.944 215.117,49.6107 214.5,49.5C 214.611,48.8826 214.944,48.3826 215.5,48C 214.086,46.0065 213.086,43.8398 212.5,41.5 Z"/></g>
<g><path style="opacity:0.635" fill="#9bb4dd" d="M 221.5,46.5 C 221.833,46.5 222.167,46.5 222.5,46.5C 223.167,46.5 223.5,46.8333 223.5,47.5C 222.167,47.8333 222.167,48.1667 223.5,48.5C 224.167,48.5 224.5,48.8333 224.5,49.5C 223.167,49.8333 223.167,50.1667 224.5,50.5C 224.631,51.2389 224.464,51.9056 224,52.5C 222.198,51.2107 221.031,49.5441 220.5,47.5C 221.167,47.5 221.5,47.1667 221.5,46.5 Z"/></g>
<g><path style="opacity:0.529" fill="#a4bde1" d="M 247.5,50.5 C 246.596,51.209 246.263,52.209 246.5,53.5C 241.305,53.8205 236.305,53.4872 231.5,52.5C 236.167,52.5 240.833,52.5 245.5,52.5C 245.138,47.6442 245.804,46.9776 247.5,50.5 Z"/></g>
<g><path style="opacity:1" fill="#5c7ac4" d="M 181.5,69.5 C 181.167,69.5 180.833,69.5 180.5,69.5C 179.493,67.5235 179.493,67.8568 180.5,70.5C 180.672,71.4916 180.338,72.1583 179.5,72.5C 179.167,71.1667 178.833,71.1667 178.5,72.5C 177.2,75.4323 175.2,77.7656 172.5,79.5C 172.167,79.5 171.833,79.5 171.5,79.5C 171.167,79.5 170.833,79.5 170.5,79.5C 169.833,79.5 169.5,79.1667 169.5,78.5C 172.556,76.737 174.389,74.0703 175,70.5C 177.756,62.5942 176.589,55.4276 171.5,49C 163.652,47.0683 163.652,46.4016 171.5,47C 176.336,48.8186 179.169,52.3186 180,57.5C 180.392,61.5276 180.892,65.5276 181.5,69.5 Z"/></g>
<g><path style="opacity:0.18" fill="#dae4f3" d="M 54.5,55.5 C 54.1034,56.525 53.4368,56.6917 52.5,56C 53.0944,55.5357 53.7611,55.369 54.5,55.5 Z"/></g>
<g><path style="opacity:1" fill="#5c7ac4" d="M 128.5,60.5 C 122.021,61.4907 115.354,61.824 108.5,61.5C 102.403,61.5698 99.5696,58.5698 100,52.5C 101.587,55.7559 104.087,57.9226 107.5,59C 114.512,59.4341 121.512,59.9341 128.5,60.5 Z"/></g>
<g><path style="opacity:0.521" fill="#a2bbe0" d="M 128.5,60.5 C 135.206,60.4477 141.872,60.9477 148.5,62C 134.994,62.827 121.66,62.6604 108.5,61.5C 115.354,61.824 122.021,61.4907 128.5,60.5 Z"/></g>
<g><path style="opacity:0.851" fill="#6889ca" d="M 105.5,63.5 C 119.518,63.4541 133.518,63.9541 147.5,65C 131.833,65.6667 116.167,65.6667 100.5,65C 102.382,64.8019 104.048,64.3019 105.5,63.5 Z"/></g>
<g><path style="opacity:0.51" fill="#91afdb" d="M 199.5,65.5 C 194.5,65.5 189.5,65.5 184.5,65.5C 184.5,66.5 184.5,67.5 184.5,68.5C 183.566,67.4324 183.232,66.099 183.5,64.5C 189.026,64.1786 194.36,64.5119 199.5,65.5 Z"/></g>
<g><path style="opacity:1" fill="#325bb5" d="M 199.5,65.5 C 200.627,66.1217 201.627,66.955 202.5,68C 219.611,70.343 236.611,69.843 253.5,66.5C 253.739,68.4672 253.406,70.3005 252.5,72C 249.576,72.9876 246.576,73.6543 243.5,74C 223.816,74.7574 204.149,74.5908 184.5,73.5C 184.5,71.8333 184.5,70.1667 184.5,68.5C 184.5,67.5 184.5,66.5 184.5,65.5C 189.5,65.5 194.5,65.5 199.5,65.5 Z"/></g>
<g><path style="opacity:1" fill="#385eb7" d="M 180.5,69.5 C 180.833,69.5 181.167,69.5 181.5,69.5C 182.309,71.0133 182.476,72.6799 182,74.5C 183.399,75.2266 184.899,75.7266 186.5,76C 184.634,79.0543 181.967,80.5543 178.5,80.5C 176.265,80.7947 174.265,80.4614 172.5,79.5C 176.385,78.7373 178.719,76.404 179.5,72.5C 180.338,72.1583 180.672,71.4916 180.5,70.5C 180.5,70.1667 180.5,69.8333 180.5,69.5 Z"/></g>
<g><path style="opacity:0.71" fill="#86a1d5" d="M 108.5,71.5 C 105.941,71.1984 103.607,71.5318 101.5,72.5C 94.4675,71.5666 87.4675,70.4 80.5,69C 90.0246,69.0327 99.3579,69.866 108.5,71.5 Z"/></g>
<g><path style="opacity:1" fill="#5674c1" d="M 101.5,72.5 C 103.607,71.5318 105.941,71.1984 108.5,71.5C 120.508,72.1544 132.508,72.9877 144.5,74C 130.074,75.0119 115.741,74.5119 101.5,72.5 Z"/></g>
<g><path style="opacity:0.208" fill="#c3d3eb" d="M 216.5,76.5 C 224.323,75.3439 232.323,75.1772 240.5,76C 239.956,76.7172 239.289,77.2172 238.5,77.5C 231.352,76.5084 224.019,76.175 216.5,76.5 Z"/></g>
<g><path style="opacity:1" fill="#4061b8" d="M 216.5,76.5 C 224.019,76.175 231.352,76.5084 238.5,77.5C 230.788,84.3258 223.122,84.1591 215.5,77C 215.728,76.6012 216.062,76.4346 216.5,76.5 Z"/></g>
<g><path style="opacity:0.616" fill="#a6bee2" d="M 178.5,72.5 C 178.833,72.5 179.167,72.5 179.5,72.5C 178.719,76.404 176.385,78.7373 172.5,79.5C 175.2,77.7656 177.2,75.4323 178.5,72.5 Z"/></g>
<g><path style="opacity:0.24" fill="#c5d5ec" d="M 169.5,78.5 C 169.5,79.1667 169.833,79.5 170.5,79.5C 170.833,80.8333 171.167,80.8333 171.5,79.5C 171.833,79.5 172.167,79.5 172.5,79.5C 174.265,80.4614 176.265,80.7947 178.5,80.5C 174.592,81.7985 170.592,81.6318 166.5,80C 167.244,78.9614 168.244,78.4614 169.5,78.5 Z"/></g>
<g><path style="opacity:1" fill="#1c1a1e" d="M 145.5,89.5 C 146.449,91.7772 147.782,93.7772 149.5,95.5C 150.833,98.5 150.833,101.5 149.5,104.5C 148.069,105.78 147.402,107.447 147.5,109.5C 146.094,109.973 145.427,110.973 145.5,112.5C 142.114,116.301 137.78,117.967 132.5,117.5C 128.223,118.227 124.889,116.893 122.5,113.5C 119.261,104.788 120.927,97.1218 127.5,90.5C 129.027,90.573 130.027,89.9063 130.5,88.5C 132.746,87.8934 135.079,87.56 137.5,87.5C 140.527,87.2865 143.193,87.9532 145.5,89.5 Z M 142.5,96.5 C 143.549,102.214 141.883,106.88 137.5,110.5C 133.709,112.125 130.376,111.459 127.5,108.5C 127.342,105.098 127.676,101.764 128.5,98.5C 132.683,93.3065 137.35,92.6398 142.5,96.5 Z"/></g>
<g><path style="opacity:1" fill="#1c1a1d" d="M 199.5,94.5 C 199.5,95.8333 199.5,97.1667 199.5,98.5C 197.712,98.7852 196.045,98.4519 194.5,97.5C 193.272,94.9285 191.272,93.5952 188.5,93.5C 186.421,93.9707 184.421,94.6373 182.5,95.5C 180.5,95.5 179.5,96.5 179.5,98.5C 178.883,98.6107 178.383,98.944 178,99.5C 177.195,102.696 177.362,105.696 178.5,108.5C 183.012,112.355 187.345,112.022 191.5,107.5C 193.738,106.463 196.071,106.297 198.5,107C 197.748,107.671 197.414,108.504 197.5,109.5C 196.011,113.153 193.344,115.653 189.5,117C 185.5,117.667 181.5,117.667 177.5,117C 175.676,116.34 174.343,115.173 173.5,113.5C 171.044,107.535 171.044,101.535 173.5,95.5C 175.833,93.8333 177.833,91.8333 179.5,89.5C 180.263,88.7321 181.263,88.2321 182.5,88C 186.167,87.3333 189.833,87.3333 193.5,88C 196.409,89.4055 198.409,91.5722 199.5,94.5 Z"/></g>
<g><path style="opacity:1" fill="#100c11" d="M 48.5,88.5 C 50.5,88.5 52.5,88.5 54.5,88.5C 55.4707,94.6995 56.804,100.7 58.5,106.5C 58.6159,109.86 58.9492,113.193 59.5,116.5C 57.2646,116.795 55.2646,116.461 53.5,115.5C 53.5,114.167 53.5,112.833 53.5,111.5C 49.2984,111.183 45.2984,111.517 41.5,112.5C 41.4606,113.583 41.1272,114.583 40.5,115.5C 38.2573,116.474 35.924,116.808 33.5,116.5C 34.1667,114.5 34.8333,112.5 35.5,110.5C 37.2503,109.341 38.2503,107.674 38.5,105.5C 41.6232,102.024 43.9565,98.0242 45.5,93.5C 47.2503,92.3406 48.2503,90.674 48.5,88.5 Z M 49.5,98.5 C 49.8333,98.5 50.1667,98.5 50.5,98.5C 50.5751,101.206 50.9084,103.873 51.5,106.5C 49.4727,106.662 47.4727,106.495 45.5,106C 46.2524,105.329 46.5858,104.496 46.5,103.5C 48.2503,102.341 49.2503,100.674 49.5,98.5 Z"/></g>
<g><path style="opacity:1" fill="#151010" d="M 74.5,88.5 C 73.3738,94.1325 72.3738,99.7992 71.5,105.5C 71.5108,107.045 71.8442,108.378 72.5,109.5C 74.5351,111.73 76.8684,112.063 79.5,110.5C 81.335,109.878 82.5017,108.544 83,106.5C 84.2899,100.554 85.1232,94.5535 85.5,88.5C 87.5,88.5 89.5,88.5 91.5,88.5C 89.9827,95.087 88.9827,101.754 88.5,108.5C 86.8958,109.287 86.2291,110.62 86.5,112.5C 85.3272,114.504 83.6605,116.004 81.5,117C 77.8333,117.667 74.1667,117.667 70.5,117C 69.0577,116.623 68.0577,115.79 67.5,114.5C 66.6167,109.897 66.2834,105.23 66.5,100.5C 67.9034,97.0915 68.5701,93.4248 68.5,89.5C 70.2646,88.5386 72.2646,88.2053 74.5,88.5 Z"/></g>
<g><path style="opacity:1" fill="#0f0907" d="M 96.5,88.5 C 104.167,88.5 111.833,88.5 119.5,88.5C 118.85,90.4352 118.517,92.4352 118.5,94.5C 115.833,94.5 113.167,94.5 110.5,94.5C 108.088,101.543 106.422,108.876 105.5,116.5C 103.833,116.5 102.167,116.5 100.5,116.5C 101.63,109.518 102.63,102.518 103.5,95.5C 101.052,94.5269 98.3854,94.1936 95.5,94.5C 96.3414,92.6208 96.6747,90.6208 96.5,88.5 Z"/></g>
<g><path style="opacity:1" fill="#0a0205" d="M 207.5,88.5 C 209.167,88.5 210.833,88.5 212.5,88.5C 211.24,95.7981 210.24,103.131 209.5,110.5C 212.962,111.482 216.629,111.815 220.5,111.5C 220.5,112.833 220.5,114.167 220.5,115.5C 214.69,116.49 208.69,116.823 202.5,116.5C 204.167,107.167 205.833,97.8333 207.5,88.5 Z"/></g>
<g><path style="opacity:1" fill="#120c0c" d="M 230.5,88.5 C 232.167,88.5 233.833,88.5 235.5,88.5C 234.85,90.4352 234.517,92.4352 234.5,94.5C 232.864,99.7224 232.364,105.056 233,110.5C 233.671,111.252 234.504,111.586 235.5,111.5C 237.216,111.371 238.883,111.038 240.5,110.5C 241.458,110.047 242.292,109.381 243,108.5C 244.749,101.924 245.916,95.2571 246.5,88.5C 248.5,88.5 250.5,88.5 252.5,88.5C 251.006,96.9731 249.006,105.306 246.5,113.5C 245.657,115.173 244.324,116.34 242.5,117C 238.833,117.667 235.167,117.667 231.5,117C 230.584,116.722 229.918,116.222 229.5,115.5C 228.093,113.183 227.093,110.683 226.5,108C 227.973,101.522 229.306,95.0217 230.5,88.5 Z"/></g>
<g><path style="opacity:1" fill="#131216" d="M 259.5,88.5 C 265.358,88.1778 271.025,88.5111 276.5,89.5C 278.123,92.2153 278.79,95.2153 278.5,98.5C 278.297,100.044 277.63,101.378 276.5,102.5C 279.471,107.179 278.804,111.346 274.5,115C 267.95,116.42 261.284,116.92 254.5,116.5C 256.167,107.167 257.833,97.8333 259.5,88.5 Z M 265.5,93.5 C 267.167,93.5 268.833,93.5 270.5,93.5C 271.833,95.5 271.833,97.5 270.5,99.5C 270.167,99.5 269.833,99.5 269.5,99.5C 267.833,99.5 266.167,99.5 264.5,99.5C 264.325,97.3792 264.659,95.3792 265.5,93.5 Z M 270.5,105.5 C 270.972,108.358 269.972,110.358 267.5,111.5C 264.918,111.975 262.918,111.308 261.5,109.5C 262.434,108.432 262.768,107.099 262.5,105.5C 265.167,105.5 267.833,105.5 270.5,105.5 Z"/></g>
<g><path style="opacity:0.937" fill="#b88f67" d="M 130.5,88.5 C 130.027,89.9063 129.027,90.573 127.5,90.5C 127.973,89.0937 128.973,88.427 130.5,88.5 Z"/></g>
<g><path style="opacity:0.427" fill="#e6b073" d="M 48.5,88.5 C 48.2503,90.674 47.2503,92.3406 45.5,93.5C 45.7497,91.326 46.7497,89.6594 48.5,88.5 Z"/></g>
<g><path style="opacity:1" fill="#5d82b3" d="M 145.5,89.5 C 148.044,90.7079 149.378,92.7079 149.5,95.5C 147.782,93.7772 146.449,91.7772 145.5,89.5 Z"/></g>
<g><path style="opacity:0.024" fill="#96caef" d="M 54.5,88.5 C 56.9597,94.1176 58.2931,100.118 58.5,106.5C 56.804,100.7 55.4707,94.6995 54.5,88.5 Z"/></g>
<g><path style="opacity:0.325" fill="#e0ad6f" d="M 85.5,88.5 C 85.1232,94.5535 84.2899,100.554 83,106.5C 82.5017,108.544 81.335,109.878 79.5,110.5C 82.1427,103.259 84.1427,95.9254 85.5,88.5 Z"/></g>
<g><path style="opacity:1" fill="#e1aa61" d="M 96.5,88.5 C 96.6747,90.6208 96.3414,92.6208 95.5,94.5C 94.9569,94.44 94.6236,94.1067 94.5,93.5C 95.0276,91.6639 95.6942,89.9972 96.5,88.5 Z"/></g>
<g><path style="opacity:0.388" fill="#f4c987" d="M 68.5,89.5 C 68.5701,93.4248 67.9034,97.0915 66.5,100.5C 66.4299,96.5752 67.0966,92.9085 68.5,89.5 Z"/></g>
<g><path style="opacity:0.439" fill="#698dca" d="M 119.5,88.5 C 120.139,89.0968 120.472,89.9302 120.5,91C 120.613,92.6991 119.947,93.8658 118.5,94.5C 118.517,92.4352 118.85,90.4352 119.5,88.5 Z"/></g>
<g><path style="opacity:0.996" fill="#cd965e" d="M 179.5,89.5 C 177.833,91.8333 175.833,93.8333 173.5,95.5C 174.5,92.5 176.5,90.5 179.5,89.5 Z"/></g>
<g><path style="opacity:0.706" fill="#567ec0" d="M 235.5,88.5 C 236.742,90.3888 236.742,92.3888 235.5,94.5C 235.167,94.5 234.833,94.5 234.5,94.5C 234.517,92.4352 234.85,90.4352 235.5,88.5 Z"/></g>
<g><path style="opacity:0.651" fill="#638dc9" d="M 74.5,88.5 C 75.2389,88.369 75.9056,88.5357 76.5,89C 74.5942,95.6963 73.2609,102.53 72.5,109.5C 71.8442,108.378 71.5108,107.045 71.5,105.5C 72.3738,99.7992 73.3738,94.1325 74.5,88.5 Z"/></g>
<g><path style="opacity:0.424" fill="#7ba4d8" d="M 91.5,88.5 C 92.1386,89.0968 92.472,89.9302 92.5,91C 91.719,97.0896 90.3857,102.923 88.5,108.5C 88.9827,101.754 89.9827,95.087 91.5,88.5 Z"/></g>
<g><path style="opacity:0.961" fill="#5f8cc0" d="M 276.5,89.5 C 280.577,91.9253 281.244,94.9253 278.5,98.5C 278.79,95.2153 278.123,92.2153 276.5,89.5 Z"/></g>
<g><path style="opacity:0.016" fill="#d6a97b" d="M 270.5,93.5 C 272.252,93.4176 273.252,94.2509 273.5,96C 273.293,97.9497 272.293,99.1164 270.5,99.5C 271.833,97.5 271.833,95.5 270.5,93.5 Z"/></g>
<g><path style="opacity:0.02" fill="#a7c8e5" d="M 182.5,95.5 C 181.833,96.8333 180.833,97.8333 179.5,98.5C 179.5,96.5 180.5,95.5 182.5,95.5 Z"/></g>
<g><path style="opacity:0.463" fill="#6996d0" d="M 212.5,88.5 C 213.376,88.3691 214.043,88.7025 214.5,89.5C 212.69,96.4078 211.356,103.408 210.5,110.5C 210.167,110.5 209.833,110.5 209.5,110.5C 210.24,103.131 211.24,95.7981 212.5,88.5 Z"/></g>
<g><path style="opacity:0.049" fill="#d4ccca" d="M 188.5,93.5 C 191.272,93.5952 193.272,94.9285 194.5,97.5C 196.045,98.4519 197.712,98.7852 199.5,98.5C 199.5,97.1667 199.5,95.8333 199.5,94.5C 200.451,95.9187 200.784,97.5853 200.5,99.5C 198.143,99.6633 195.81,99.4966 193.5,99C 192.308,96.6451 190.641,94.8118 188.5,93.5 Z"/></g>
<g><path style="opacity:0.482" fill="#6892cf" d="M 252.5,88.5 C 252.564,95.7923 251.398,103.126 249,110.5C 248.623,111.942 247.79,112.942 246.5,113.5C 249.006,105.306 251.006,96.9731 252.5,88.5 Z"/></g>
<g><path style="opacity:0.461" fill="#8797ab" d="M 265.5,93.5 C 264.659,95.3792 264.325,97.3792 264.5,99.5C 266.167,99.5 267.833,99.5 269.5,99.5C 267.735,100.461 265.735,100.795 263.5,100.5C 262.99,97.6122 263.656,95.2789 265.5,93.5 Z"/></g>
<g><path style="opacity:0.212" fill="#7eafe2" d="M 49.5,98.5 C 49.2503,100.674 48.2503,102.341 46.5,103.5C 46.7497,101.326 47.7497,99.6594 49.5,98.5 Z"/></g>
<g><path style="opacity:0.439" fill="#6e98d0" d="M 110.5,94.5 C 109.53,101.521 108.363,108.521 107,115.5C 106.617,116.056 106.117,116.389 105.5,116.5C 106.422,108.876 108.088,101.543 110.5,94.5 Z"/></g>
<g><path style="opacity:0.545" fill="#e8b776" d="M 246.5,88.5 C 245.916,95.2571 244.749,101.924 243,108.5C 242.292,109.381 241.458,110.047 240.5,110.5C 242.885,103.223 244.885,95.8896 246.5,88.5 Z"/></g>
<g><path style="opacity:0.486" fill="#dba468" d="M 45.5,93.5 C 43.9565,98.0242 41.6232,102.024 38.5,105.5C 40.0435,100.976 42.3768,96.9758 45.5,93.5 Z"/></g>
<g><path style="opacity:0.808" fill="#cd8c49" d="M 51.5,106.5 C 50.9084,103.873 50.5751,101.206 50.5,98.5C 50.369,97.7611 50.5357,97.0944 51,96.5C 52.4287,99.95 52.5953,103.283 51.5,106.5 Z"/></g>
<g><path style="opacity:0.49" fill="#e7b375" d="M 127.5,90.5 C 120.927,97.1218 119.261,104.788 122.5,113.5C 121.21,112.942 120.377,111.942 120,110.5C 118.838,104.443 119.838,98.7767 123,93.5C 124.129,91.8588 125.629,90.8588 127.5,90.5 Z"/></g>
<g><path style="opacity:0.014" fill="#97cfef" d="M 128.5,98.5 C 127.676,101.764 127.342,105.098 127.5,108.5C 126.362,105.696 126.195,102.696 127,99.5C 127.383,98.944 127.883,98.6107 128.5,98.5 Z"/></g>
<g><path style="opacity:0.009" fill="#99d1f1" d="M 179.5,98.5 C 178.676,101.764 178.342,105.098 178.5,108.5C 177.362,105.696 177.195,102.696 178,99.5C 178.383,98.944 178.883,98.6107 179.5,98.5 Z"/></g>
<g><path style="opacity:0.722" fill="#e4ad6e" d="M 173.5,95.5 C 171.044,101.535 171.044,107.535 173.5,113.5C 171.073,111.492 170.073,108.826 170.5,105.5C 170.323,101.706 171.323,98.3731 173.5,95.5 Z"/></g>
<g><path style="opacity:0.447" fill="#ecbb78" d="M 207.5,88.5 C 205.833,97.8333 204.167,107.167 202.5,116.5C 201.861,115.903 201.528,115.07 201.5,114C 202.949,105.234 204.949,96.7344 207.5,88.5 Z"/></g>
<g><path style="opacity:0.486" fill="#ebbb77" d="M 259.5,88.5 C 257.833,97.8333 256.167,107.167 254.5,116.5C 253.861,115.903 253.528,115.07 253.5,114C 254.949,105.234 256.949,96.7344 259.5,88.5 Z"/></g>
<g><path style="opacity:0.052" fill="#d1dade" d="M 270.5,105.5 C 267.833,105.5 265.167,105.5 262.5,105.5C 262.768,107.099 262.434,108.432 261.5,109.5C 261.5,107.833 261.5,106.167 261.5,104.5C 264.713,104.19 267.713,104.523 270.5,105.5 Z"/></g>
<g><path style="opacity:0.475" fill="#9c9ea7" d="M 197.5,109.5 C 197.414,108.504 197.748,107.671 198.5,107C 196.071,106.297 193.738,106.463 191.5,107.5C 193.635,105.631 196.302,104.964 199.5,105.5C 199.771,107.38 199.104,108.713 197.5,109.5 Z"/></g>
<g><path style="opacity:0.173" fill="#75a7dd" d="M 234.5,94.5 C 234.833,94.5 235.167,94.5 235.5,94.5C 234.965,98.5107 234.298,102.511 233.5,106.5C 233.437,108.514 234.103,110.181 235.5,111.5C 234.504,111.586 233.671,111.252 233,110.5C 232.364,105.056 232.864,99.7224 234.5,94.5 Z"/></g>
<g><path style="opacity:0.467" fill="#e6b073" d="M 38.5,105.5 C 38.2503,107.674 37.2503,109.341 35.5,110.5C 35.7497,108.326 36.7497,106.659 38.5,105.5 Z"/></g>
<g><path style="opacity:1" fill="#d3925a" d="M 66.5,100.5 C 66.2834,105.23 66.6167,109.897 67.5,114.5C 65.6573,112.841 64.6573,110.675 64.5,108C 64.8669,105.292 65.5335,102.792 66.5,100.5 Z"/></g>
<g><path style="opacity:0.984" fill="#c48855" d="M 142.5,96.5 C 144.938,99.2244 145.105,102.224 143,105.5C 141.924,108.079 140.091,109.746 137.5,110.5C 141.883,106.88 143.549,102.214 142.5,96.5 Z"/></g>
<g><path style="opacity:0.451" fill="#72a7de" d="M 149.5,104.5 C 149.598,106.553 148.931,108.22 147.5,109.5C 147.402,107.447 148.069,105.78 149.5,104.5 Z"/></g>
<g><path style="opacity:0.376" fill="#efc17f" d="M 103.5,95.5 C 102.63,102.518 101.63,109.518 100.5,116.5C 99.7611,116.631 99.0944,116.464 98.5,116C 100.118,109.059 101.784,102.226 103.5,95.5 Z"/></g>
<g><path style="opacity:0.253" fill="#bcc1c6" d="M 153.5,104.5 C 153.5,105.833 153.5,107.167 153.5,108.5C 157.5,108.5 161.5,108.5 165.5,108.5C 165.5,107.167 165.5,105.833 165.5,104.5C 166.376,104.369 167.043,104.702 167.5,105.5C 166.754,106.736 166.421,108.07 166.5,109.5C 161.833,109.5 157.167,109.5 152.5,109.5C 152.216,107.585 152.549,105.919 153.5,104.5 Z"/></g>
<g><path style="opacity:1" fill="#0f0501" d="M 153.5,104.5 C 157.5,104.5 161.5,104.5 165.5,104.5C 165.5,105.833 165.5,107.167 165.5,108.5C 161.5,108.5 157.5,108.5 153.5,108.5C 153.5,107.167 153.5,105.833 153.5,104.5 Z"/></g>
<g><path style="opacity:0.439" fill="#7cb7e6" d="M 58.5,106.5 C 60.1604,109.77 60.4938,113.103 59.5,116.5C 58.9492,113.193 58.6159,109.86 58.5,106.5 Z"/></g>
<g><path style="opacity:0.612" fill="#6e9cd0" d="M 88.5,108.5 C 88.3404,110.153 87.6737,111.486 86.5,112.5C 86.2291,110.62 86.8958,109.287 88.5,108.5 Z"/></g>
<g><path style="opacity:0.004" fill="#b9d8f2" d="M 147.5,109.5 C 147.573,111.027 146.906,112.027 145.5,112.5C 145.427,110.973 146.094,109.973 147.5,109.5 Z"/></g>
<g><path style="opacity:0.773" fill="#576468" d="M 209.5,110.5 C 209.833,110.5 210.167,110.5 210.5,110.5C 214.167,110.5 217.833,110.5 221.5,110.5C 221.784,112.415 221.451,114.081 220.5,115.5C 220.5,114.167 220.5,112.833 220.5,111.5C 216.629,111.815 212.962,111.482 209.5,110.5 Z"/></g>
<g><path style="opacity:1" fill="#b88d60" d="M 270.5,105.5 C 271.613,106.946 271.78,108.613 271,110.5C 269.989,111.337 268.822,111.67 267.5,111.5C 269.972,110.358 270.972,108.358 270.5,105.5 Z"/></g>
<g><path style="opacity:0.039" fill="#ebebe5" d="M 41.5,112.5 C 45.2984,111.517 49.2984,111.183 53.5,111.5C 53.5,112.833 53.5,114.167 53.5,115.5C 52.596,114.791 52.2627,113.791 52.5,112.5C 48.8333,112.5 45.1667,112.5 41.5,112.5 Z"/></g>
<g><path style="opacity:0.596" fill="#dca86e" d="M 230.5,88.5 C 229.306,95.0217 227.973,101.522 226.5,108C 227.093,110.683 228.093,113.183 229.5,115.5C 226.777,113.896 225.444,111.396 225.5,108C 226.5,102.334 227.5,96.6674 228.5,91C 228.684,89.6244 229.351,88.7911 230.5,88.5 Z"/></g>
<g><path style="opacity:0.38" fill="#deaa71" d="M 35.5,110.5 C 34.8333,112.5 34.1667,114.5 33.5,116.5C 32.7611,116.631 32.0944,116.464 31.5,116C 32.4881,113.833 33.8214,112 35.5,110.5 Z"/></g>
<g><path style="opacity:0.993" fill="#5568ba" d="M 76.5,119.5 C 78.5,119.5 80.5,119.5 82.5,119.5C 82.779,124.227 83.4456,128.893 84.5,133.5C 81.7097,133.778 79.2097,133.111 77,131.5C 74.439,133.344 71.6057,133.844 68.5,133C 71.3041,128.555 73.9708,124.055 76.5,119.5 Z"/></g>
<g><path style="opacity:0.994" fill="#5165b9" d="M 93.5,119.5 C 97.1817,119.335 100.848,119.501 104.5,120C 107.011,123.519 106.677,126.852 103.5,130C 103.735,130.873 104.069,131.707 104.5,132.5C 102.604,133.466 100.604,133.799 98.5,133.5C 98.6713,130.203 98.0046,129.869 96.5,132.5C 94.9547,133.452 93.288,133.785 91.5,133.5C 92.5544,128.893 93.221,124.227 93.5,119.5 Z M 100.5,125.5 C 98.663,125.361 98.3296,124.694 99.5,123.5C 100.298,123.957 100.631,124.624 100.5,125.5 Z"/></g>
<g><path style="opacity:0.996" fill="#5d6cba" d="M 136.5,121.5 C 135.817,123.176 134.483,123.843 132.5,123.5C 131.075,121.969 130.409,122.302 130.5,124.5C 131.209,125.404 132.209,125.737 133.5,125.5C 137.476,127.82 137.476,130.32 133.5,133C 130.833,133.667 128.167,133.667 125.5,133C 124.62,131.644 124.286,130.144 124.5,128.5C 128.554,128.79 129.054,128.123 126,126.5C 125.104,123.975 125.604,121.808 127.5,120C 130.167,119.333 132.833,119.333 135.5,120C 136.056,120.383 136.389,120.883 136.5,121.5 Z"/></g>
<g><path style="opacity:0.991" fill="#4558b1" d="M 155.5,122.5 C 153.5,122.5 151.5,122.5 149.5,122.5C 149.5,123.5 149.5,124.5 149.5,125.5C 150.978,125.238 152.311,125.571 153.5,126.5C 151.955,127.452 150.288,127.785 148.5,127.5C 148.5,128.5 148.5,129.5 148.5,130.5C 150.167,130.5 151.833,130.5 153.5,130.5C 153.5,131.5 153.5,132.5 153.5,133.5C 150.167,133.5 146.833,133.5 143.5,133.5C 144.554,128.893 145.221,124.227 145.5,119.5C 149.106,119.789 152.606,119.456 156,118.5C 156.765,120.066 156.598,121.399 155.5,122.5 Z"/></g>
<g><path style="opacity:0.994" fill="#4d61b6" d="M 175.5,120.5 C 175.5,122.833 175.5,125.167 175.5,127.5C 174.248,129.339 174.248,131.172 175.5,133C 172.356,133.952 169.856,133.119 168,130.5C 167.517,131.448 167.351,132.448 167.5,133.5C 165.833,133.5 164.167,133.5 162.5,133.5C 163.296,128.853 163.963,124.186 164.5,119.5C 168.371,119.185 172.038,119.518 175.5,120.5 Z M 171.5,125.5 C 169.663,125.361 169.33,124.694 170.5,123.5C 171.298,123.957 171.631,124.624 171.5,125.5 Z"/></g>
<g><path style="opacity:0.992" fill="#4f64b9" d="M 185.5,119.5 C 186.833,119.5 188.167,119.5 189.5,119.5C 189.125,122.397 189.625,125.063 191,127.5C 191.464,126.906 191.631,126.239 191.5,125.5C 192.194,120.45 194.861,118.784 199.5,120.5C 197.547,124.909 195.213,129.076 192.5,133C 187.507,134.509 185.507,132.675 186.5,127.5C 186.721,124.721 186.388,122.054 185.5,119.5 Z"/></g>
<g><path style="opacity:0.996" fill="#5b5eb2" d="M 211.5,119.5 C 210.5,124.167 209.5,128.833 208.5,133.5C 207.167,133.5 205.833,133.5 204.5,133.5C 205.266,129.168 206.1,124.834 207,120.5C 208.356,119.62 209.856,119.286 211.5,119.5 Z"/></g>
<g><path style="opacity:0.994" fill="#1a51b1" d="M 244.5,119.5 C 247.167,119.5 249.833,119.5 252.5,119.5C 252.5,120.5 252.5,121.5 252.5,122.5C 250.585,122.216 248.919,122.549 247.5,123.5C 248.568,124.434 249.901,124.768 251.5,124.5C 251.5,125.5 251.5,126.5 251.5,127.5C 249.833,127.5 248.167,127.5 246.5,127.5C 246.5,128.5 246.5,129.5 246.5,130.5C 248.167,130.5 249.833,130.5 251.5,130.5C 252.774,131.189 252.774,132.023 251.5,133C 248.518,133.498 245.518,133.665 242.5,133.5C 242.5,131.5 242.5,129.5 242.5,127.5C 243.768,125.095 244.435,122.428 244.5,119.5 Z"/></g>
<g><path style="opacity:0.995" fill="#6171bc" d="M 52.5,119.5 C 55.5788,119.26 58.5788,119.593 61.5,120.5C 62.9501,121.85 63.6168,123.516 63.5,125.5C 60.2836,125.419 57.2836,124.919 54.5,124C 53.5939,125.699 53.2606,127.533 53.5,129.5C 56.5976,127.818 59.9309,127.318 63.5,128C 60.5916,133.091 56.2582,134.757 50.5,133C 46.3982,127.883 47.0649,123.383 52.5,119.5 Z"/></g>
<g><path style="opacity:0.998" fill="#5f6fbb" d="M 223.5,119.5 C 226.187,119.336 228.854,119.503 231.5,120C 233.607,121.264 234.607,123.097 234.5,125.5C 231.284,125.419 228.284,124.919 225.5,124C 224.594,125.699 224.261,127.533 224.5,129.5C 227.261,128.08 230.261,127.413 233.5,127.5C 233.548,130.292 232.215,132.125 229.5,133C 223.694,135.024 220.027,133.19 218.5,127.5C 219.177,124.133 220.843,121.466 223.5,119.5 Z"/></g>
<g><path style="opacity:0.635" fill="#c99eba" d="M 185.5,119.5 C 186.388,122.054 186.721,124.721 186.5,127.5C 185.734,125.316 185.067,122.982 184.5,120.5C 184.624,119.893 184.957,119.56 185.5,119.5 Z"/></g>
<g><path style="opacity:1" fill="#87b9e8" d="M 175.5,120.5 C 177.891,122.764 177.891,125.098 175.5,127.5C 175.5,125.167 175.5,122.833 175.5,120.5 Z"/></g>
<g><path style="opacity:0.714" fill="#8dc8ef" d="M 211.5,119.5 C 212.097,119.735 212.43,120.235 212.5,121C 211.539,124.803 210.706,128.636 210,132.5C 209.617,133.056 209.117,133.389 208.5,133.5C 209.5,128.833 210.5,124.167 211.5,119.5 Z"/></g>
<g><path style="opacity:0.058" fill="#cad8eb" d="M 247.5,123.5 C 248.919,122.549 250.585,122.216 252.5,122.5C 252.5,121.5 252.5,120.5 252.5,119.5C 253.297,118.522 253.964,118.855 254.5,120.5C 252.937,123.029 250.604,124.029 247.5,123.5 Z"/></g>
<g><path style="opacity:0.408" fill="#a1cdeb" d="M 189.5,119.5 C 190.167,121.5 190.833,123.5 191.5,125.5C 191.631,126.239 191.464,126.906 191,127.5C 189.625,125.063 189.125,122.397 189.5,119.5 Z"/></g>
<g><path style="opacity:0.02" fill="#c4cee1" d="M 136.5,121.5 C 137.404,122.209 137.737,123.209 137.5,124.5C 135.901,124.232 134.568,124.566 133.5,125.5C 132.209,125.737 131.209,125.404 130.5,124.5C 131.492,124.672 132.158,124.338 132.5,123.5C 134.483,123.843 135.817,123.176 136.5,121.5 Z"/></g>
<g><path style="opacity:0.731" fill="#9bb2da" d="M 155.5,122.5 C 154.048,123.302 152.382,123.802 150.5,124C 156.817,125.8 156.484,127.467 149.5,129C 151.134,129.494 152.801,129.66 154.5,129.5C 154.768,131.099 154.434,132.432 153.5,133.5C 153.5,132.5 153.5,131.5 153.5,130.5C 151.833,130.5 150.167,130.5 148.5,130.5C 148.5,129.5 148.5,128.5 148.5,127.5C 150.288,127.785 151.955,127.452 153.5,126.5C 152.311,125.571 150.978,125.238 149.5,125.5C 149.5,124.5 149.5,123.5 149.5,122.5C 151.5,122.5 153.5,122.5 155.5,122.5 Z"/></g>
<g><path style="opacity:0.082" fill="#dbe1e1" d="M 100.5,125.5 C 99.791,126.404 98.791,126.737 97.5,126.5C 97.5,125.167 97.5,123.833 97.5,122.5C 98.8333,122.5 100.167,122.5 101.5,122.5C 101.737,123.791 101.404,124.791 100.5,125.5 Z M 100.5,125.5 C 100.631,124.624 100.298,123.957 99.5,123.5C 98.3296,124.694 98.663,125.361 100.5,125.5 Z"/></g>
<g><path style="opacity:0.063" fill="#dfe1e3" d="M 171.5,125.5 C 170.791,126.404 169.791,126.737 168.5,126.5C 168.5,125.167 168.5,123.833 168.5,122.5C 169.833,122.5 171.167,122.5 172.5,122.5C 172.737,123.791 172.404,124.791 171.5,125.5 Z M 171.5,125.5 C 171.631,124.624 171.298,123.957 170.5,123.5C 169.33,124.694 169.663,125.361 171.5,125.5 Z"/></g>
<g><path style="opacity:0.569" fill="#ba87b3" d="M 244.5,119.5 C 244.435,122.428 243.768,125.095 242.5,127.5C 242.294,124.505 242.96,121.838 244.5,119.5 Z"/></g>
<g><path style="opacity:0.016" fill="#c2d9eb" d="M 251.5,124.5 C 252.434,125.568 252.768,126.901 252.5,128.5C 250.801,128.34 249.134,128.506 247.5,129C 249.058,129.21 250.391,129.71 251.5,130.5C 249.833,130.5 248.167,130.5 246.5,130.5C 246.5,129.5 246.5,128.5 246.5,127.5C 248.167,127.5 249.833,127.5 251.5,127.5C 251.5,126.5 251.5,125.5 251.5,124.5 Z"/></g>
<g><path style="opacity:0.329" fill="#cfa3b7" d="M 242.5,127.5 C 242.5,129.5 242.5,131.5 242.5,133.5C 241.761,133.631 241.094,133.464 240.5,133C 241.109,131.052 241.776,129.218 242.5,127.5 Z"/></g>
</svg>
