<?xml version="1.0" encoding="UTF-8"?>
<!DOCTYPE svg PUBLIC "-//W3C//DTD SVG 1.1//EN" "http://www.w3.org/Graphics/SVG/1.1/DTD/svg11.dtd">
<svg xmlns="http://www.w3.org/2000/svg" version="1.1" width="487px" height="161px" style="shape-rendering:geometricPrecision; text-rendering:geometricPrecision; image-rendering:optimizeQuality; fill-rule:evenodd; clip-rule:evenodd" xmlns:xlink="http://www.w3.org/1999/xlink">
<g><path style="opacity:1" fill="#e3ecf8" d="M 354.5,21.5 C 354.918,22.2216 355.584,22.7216 356.5,23C 342.121,23.0885 327.787,23.7552 313.5,25C 316.922,31.6745 319.922,38.5079 322.5,45.5C 317.764,46.9925 313.098,46.8258 308.5,45C 305.382,40.2139 301.882,35.7139 298,31.5C 301.337,38.2677 305.837,44.4343 311.5,50C 316.843,51.9576 322.343,53.4576 328,54.5C 332.202,56.7372 336.369,59.0706 340.5,61.5C 336.893,62.4892 333.226,62.8226 329.5,62.5C 328.801,60.444 327.801,58.444 326.5,56.5C 323.134,55.7597 319.8,55.093 316.5,54.5C 309.71,52.7435 303.71,49.5769 298.5,45C 294.629,40.0928 291.129,34.9261 288,29.5C 286.549,27.5359 284.716,26.2026 282.5,25.5C 280.651,24.1634 278.484,23.4967 276,23.5C 261.265,26.1157 248.765,32.7823 238.5,43.5C 235.036,46.4625 231.703,49.6291 228.5,53C 227.207,53.49 225.873,53.6567 224.5,53.5C 225.684,52.3121 225.684,51.1455 224.5,50C 220.908,49.6027 217.408,50.1027 214,51.5C 212.699,51.3613 211.866,50.6946 211.5,49.5C 210.191,48.376 209.525,46.876 209.5,45C 209.943,43.175 210.277,41.3417 210.5,39.5C 213.604,38.9711 215.937,39.9711 217.5,42.5C 223.137,43.6632 228.804,43.8299 234.5,43C 254.93,23.8007 279.263,15.6341 307.5,18.5C 323.211,18.9927 338.877,19.9927 354.5,21.5 Z M 268.5,53.5 C 267.5,53.5 266.5,53.5 265.5,53.5C 263.393,52.5318 261.059,52.1984 258.5,52.5C 258.5,50.8333 258.5,49.1667 258.5,47.5C 260.429,42.0681 262.762,36.7348 265.5,31.5C 277.558,25.7437 283.725,29.4104 284,42.5C 279.816,43.5381 275.65,44.7048 271.5,46C 269.253,47.995 268.253,50.495 268.5,53.5 Z M 254.5,35.5 C 254.865,37.588 254.865,39.9213 254.5,42.5C 252.143,42.6633 249.81,42.4966 247.5,42C 249.729,39.5997 252.063,37.433 254.5,35.5 Z M 242.5,47.5 C 246.012,46.9455 249.012,47.6122 251.5,49.5C 248.609,50.4025 245.609,50.7359 242.5,50.5C 242.5,49.5 242.5,48.5 242.5,47.5 Z"/></g>
<g><path style="opacity:1" fill="#f0f5fc" d="M 354.5,21.5 C 356.786,21.595 358.786,22.2616 360.5,23.5C 359.448,23.3505 358.448,23.5172 357.5,24C 367.494,29.3286 377.161,35.162 386.5,41.5C 374.033,43.16 361.366,44.16 348.5,44.5C 339.822,44.5841 331.155,44.9175 322.5,45.5C 319.922,38.5079 316.922,31.6745 313.5,25C 327.787,23.7552 342.121,23.0885 356.5,23C 355.584,22.7216 354.918,22.2216 354.5,21.5 Z"/></g>
<g><path style="opacity:0.857" fill="#d6e3f4" d="M 282.5,25.5 C 282.062,25.4346 281.728,25.6012 281.5,26C 285.036,29.2012 288.203,32.7012 291,36.5C 291.667,37.8333 291.667,39.1667 291,40.5C 289.579,37.9906 287.912,35.6572 286,33.5C 286.398,35.6313 287.398,37.6313 289,39.5C 289.667,41.8333 289.667,44.1667 289,46.5C 286.699,48.2329 284.032,49.2329 281,49.5C 276.975,46.506 273.475,47.006 270.5,51C 271.943,53.0777 271.276,53.9111 268.5,53.5C 268.253,50.495 269.253,47.995 271.5,46C 275.65,44.7048 279.816,43.5381 284,42.5C 283.725,29.4104 277.558,25.7437 265.5,31.5C 262.762,36.7348 260.429,42.0681 258.5,47.5C 259.403,41.2919 261.403,35.4585 264.5,30C 263.551,29.3828 262.718,29.5494 262,30.5C 260.108,34.1754 258.608,38.0088 257.5,42C 257.164,43.0299 256.497,43.5299 255.5,43.5C 249.833,43.5 244.167,43.5 238.5,43.5C 248.765,32.7823 261.265,26.1157 276,23.5C 278.484,23.4967 280.651,24.1634 282.5,25.5 Z M 254.5,35.5 C 252.063,37.433 249.729,39.5997 247.5,42C 249.81,42.4966 252.143,42.6633 254.5,42.5C 254.865,39.9213 254.865,37.588 254.5,35.5 Z"/></g>
<g><path style="opacity:1" fill="#b0c8e9" d="M 360.5,23.5 C 367.699,25.4348 374.365,28.4348 380.5,32.5C 383.611,34.5591 386.944,36.3924 390.5,38C 391.861,39.5843 392.528,41.4176 392.5,43.5C 390.142,43.7475 388.142,43.0808 386.5,41.5C 377.161,35.162 367.494,29.3286 357.5,24C 358.448,23.5172 359.448,23.3505 360.5,23.5 Z"/></g>
<g><path style="opacity:1" fill="#b5ccea" d="M 211.5,49.5 C 211.5,46.5 211.5,43.5 211.5,40.5C 212.833,40.5 214.167,40.5 215.5,40.5C 215.286,42.1439 215.62,43.6439 216.5,45C 221.833,45.3333 227.167,45.6667 232.5,46C 225.571,47.1817 218.571,48.3483 211.5,49.5 Z"/></g>
<g><path style="opacity:0.205" fill="#c2d4ed" d="M 65.5,47.5 C 64.596,46.791 64.2627,45.791 64.5,44.5C 55.7794,44.2246 47.1127,44.5579 38.5,45.5C 38.6107,44.8826 38.944,44.3826 39.5,44C 48.1603,43.5002 56.8269,43.3336 65.5,43.5C 65.5,44.8333 65.5,46.1667 65.5,47.5 Z"/></g>
<g><path style="opacity:1" fill="#1554ba" d="M 185.5,46.5 C 185.783,47.2891 186.283,47.9558 187,48.5C 187.49,47.2068 187.657,45.8734 187.5,44.5C 193.31,43.5104 199.31,43.1771 205.5,43.5C 205.5,47.1667 205.5,50.8333 205.5,54.5C 210.5,54.5 215.5,54.5 220.5,54.5C 220.017,69.9894 220.517,85.3227 222,100.5C 223.151,85.1466 223.984,69.8132 224.5,54.5C 229.363,54.8195 234.03,54.4861 238.5,53.5C 239.477,50.7131 239.81,47.7131 239.5,44.5C 244.5,44.5 249.5,44.5 254.5,44.5C 254.187,48.0419 254.521,51.3752 255.5,54.5C 258.764,53.6758 262.098,53.3424 265.5,53.5C 267.728,54.3771 269.728,55.7104 271.5,57.5C 272.752,59.0009 273.752,60.6675 274.5,62.5C 274.667,76.1707 274.5,89.8374 274,103.5C 270.672,112.382 264.672,115.048 256,111.5C 245,112.833 234,112.833 223,111.5C 219.405,113.456 215.572,113.956 211.5,113C 210.529,111.519 209.196,110.685 207.5,110.5C 205.804,106.978 205.138,107.644 205.5,112.5C 199.441,112.746 193.441,112.413 187.5,111.5C 187.655,108.147 186.988,107.814 185.5,110.5C 182.189,112.978 178.355,113.978 174,113.5C 169.645,113.978 165.811,112.978 162.5,110.5C 162.027,109.094 161.027,108.427 159.5,108.5C 158.5,108.167 157.833,107.5 157.5,106.5C 156.833,103.833 156.167,103.833 155.5,106.5C 155.5,107.167 155.167,107.5 154.5,107.5C 153.5,107.833 152.833,108.5 152.5,109.5C 151.547,111.61 149.881,112.777 147.5,113C 142.167,113.667 136.833,113.667 131.5,113C 129.413,112.208 127.579,111.041 126,109.5C 125.691,110.766 125.191,111.933 124.5,113C 119.5,113.667 114.5,113.667 109.5,113C 107.934,112.392 106.6,111.558 105.5,110.5C 105.539,109.244 105.039,108.244 104,107.5C 103.506,109.134 103.34,110.801 103.5,112.5C 97.2512,112.386 91.2512,112.386 85.5,112.5C 83.866,113.161 82.0326,113.494 80,113.5C 77.1345,113.7 74.6345,113.033 72.5,111.5C 66.8226,112.743 60.8226,112.743 54.5,111.5C 54.7847,108.171 54.1181,105.171 52.5,102.5C 51.8333,102.5 51.1667,102.5 50.5,102.5C 48.5977,105.337 47.931,108.671 48.5,112.5C 43.4889,112.666 38.4889,112.499 33.5,112C 32.5399,108.27 32.2065,104.437 32.5,100.5C 33.6688,83.1448 35.1688,65.8115 37,48.5C 37.2321,47.2625 37.7321,46.2625 38.5,45.5C 47.1127,44.5579 55.7794,44.2246 64.5,44.5C 64.2627,45.791 64.596,46.791 65.5,47.5C 65.5,48.1667 65.5,48.8333 65.5,49.5C 65.5,51.5 65.5,53.5 65.5,55.5C 71.4549,54.6365 77.4549,54.3032 83.5,54.5C 83.1706,69.676 83.5039,84.676 84.5,99.5C 85.2216,99.0825 85.7216,98.4158 86,97.5C 86.4999,83.504 86.6666,69.504 86.5,55.5C 92.0748,54.5476 97.7414,54.2143 103.5,54.5C 103.5,51.5 103.5,48.5 103.5,45.5C 109.106,44.5931 114.773,44.2598 120.5,44.5C 120.5,48.5 120.5,52.5 120.5,56.5C 121.833,56.5 123.167,56.5 124.5,56.5C 124.345,59.8531 125.012,60.1864 126.5,57.5C 126.842,56.6618 127.508,56.3284 128.5,56.5C 130.027,56.573 131.027,55.9063 131.5,54.5C 135.219,52.7015 139.219,52.2015 143.5,53C 147.11,53.4717 150.11,54.9717 152.5,57.5C 152.821,59.0481 153.821,59.7148 155.5,59.5C 155.993,57.1944 156.326,54.861 156.5,52.5C 158.394,48.1157 161.727,45.2824 166.5,44C 171.5,43.3333 176.5,43.3333 181.5,44C 182.984,44.6622 184.317,45.4955 185.5,46.5 Z M 242.5,47.5 C 246.012,46.9455 249.012,47.6122 251.5,49.5C 248.609,50.4025 245.609,50.7359 242.5,50.5C 242.5,49.5 242.5,48.5 242.5,47.5 Z M 213.5,59.5 C 212.504,59.4142 211.671,59.7476 211,60.5C 210.425,65.466 209.258,70.1327 207.5,74.5C 207.738,69.0712 207.738,63.7379 207.5,58.5C 210.106,57.3483 212.773,57.1816 215.5,58C 214.956,58.7172 214.289,59.2172 213.5,59.5 Z M 172.5,71.5 C 176.866,73.3713 181.533,74.038 186.5,73.5C 186.5,76.1667 186.5,78.8333 186.5,81.5C 181.533,80.962 176.866,81.6287 172.5,83.5C 173.833,79.5 173.833,75.5 172.5,71.5 Z M 207.5,77.5 C 208.167,78.5 208.833,79.5 209.5,80.5C 209.5,83.5 209.5,86.5 209.5,89.5C 208.833,89.8333 208.167,90.1667 207.5,90.5C 207.5,86.1667 207.5,81.8333 207.5,77.5 Z"/></g>
<g><path style="opacity:0.92" fill="#3d77c8" d="M 238.5,43.5 C 244.167,43.5 249.833,43.5 255.5,43.5C 255.5,47.1667 255.5,50.8333 255.5,54.5C 254.521,51.3752 254.187,48.0419 254.5,44.5C 249.5,44.5 244.5,44.5 239.5,44.5C 239.81,47.7131 239.477,50.7131 238.5,53.5C 238.5,50.1667 238.5,46.8333 238.5,43.5 Z M 242.5,47.5 C 246.012,46.9455 249.012,47.6122 251.5,49.5C 248.609,50.4025 245.609,50.7359 242.5,50.5C 242.5,49.5 242.5,48.5 242.5,47.5 Z"/></g>
<g><path style="opacity:0.259" fill="#bdd0ec" d="M 126.5,57.5 C 125.012,60.1864 124.345,59.8531 124.5,56.5C 123.167,56.5 121.833,56.5 120.5,56.5C 120.5,52.5 120.5,48.5 120.5,44.5C 114.773,44.2598 109.106,44.5931 103.5,45.5C 103.611,44.8826 103.944,44.3826 104.5,44C 110.157,43.5006 115.824,43.3339 121.5,43.5C 121.5,47.5 121.5,51.5 121.5,55.5C 123.554,55.3653 125.221,56.032 126.5,57.5 Z"/></g>
<g><path style="opacity:0.275" fill="#bcd0ec" d="M 187.5,44.5 C 187.657,45.8734 187.49,47.2068 187,48.5C 186.283,47.9558 185.783,47.2891 185.5,46.5C 186.167,45.8333 186.833,45.1667 187.5,44.5 Z"/></g>
<g><path style="opacity:1" fill="#b9cfec" d="M 405.5,44.5 C 418.277,48.2257 431.277,51.3924 444.5,54C 447.202,55.0121 449.535,56.5121 451.5,58.5C 450.432,59.4345 449.099,59.7678 447.5,59.5C 442.17,57.0022 436.504,55.1689 430.5,54C 405.237,51.2228 383.237,49.3895 364.5,48.5C 377.399,46.8141 390.399,45.9808 403.5,46C 403.167,45.6667 402.833,45.3333 402.5,45C 403.448,44.5172 404.448,44.3505 405.5,44.5 Z"/></g>
<g><path style="opacity:0.816" fill="#b1c8e9" d="M 258.5,47.5 C 258.5,49.1667 258.5,50.8333 258.5,52.5C 261.059,52.1984 263.393,52.5318 265.5,53.5C 262.098,53.3424 258.764,53.6758 255.5,54.5C 255.5,50.8333 255.5,47.1667 255.5,43.5C 256.497,43.5299 257.164,43.0299 257.5,42C 258.608,38.0088 260.108,34.1754 262,30.5C 262.718,29.5494 263.551,29.3828 264.5,30C 261.403,35.4585 259.403,41.2919 258.5,47.5 Z"/></g>
<g><path style="opacity:1" fill="#cfdef2" d="M 380.5,32.5 C 388.983,36.2417 397.316,40.2417 405.5,44.5C 404.448,44.3505 403.448,44.5172 402.5,45C 402.833,45.3333 403.167,45.6667 403.5,46C 390.399,45.9808 377.399,46.8141 364.5,48.5C 359.695,47.5128 354.695,47.1795 349.5,47.5C 357.326,46.4452 365.326,45.6119 373.5,45C 365.173,44.5003 356.84,44.3336 348.5,44.5C 361.366,44.16 374.033,43.16 386.5,41.5C 388.142,43.0808 390.142,43.7475 392.5,43.5C 392.528,41.4176 391.861,39.5843 390.5,38C 386.944,36.3924 383.611,34.5591 380.5,32.5 Z"/></g>
<g><path style="opacity:1" fill="#a4bee5" d="M 238.5,43.5 C 238.5,46.8333 238.5,50.1667 238.5,53.5C 234.03,54.4861 229.363,54.8195 224.5,54.5C 224.5,54.1667 224.5,53.8333 224.5,53.5C 225.873,53.6567 227.207,53.49 228.5,53C 231.703,49.6291 235.036,46.4625 238.5,43.5 Z"/></g>
<g><path style="opacity:0.616" fill="#81a2da" d="M 115.5,46.5 C 116.5,46.5 117.5,46.5 118.5,46.5C 118.5,50.1667 118.5,53.8333 118.5,57.5C 117.5,57.5 116.5,57.5 115.5,57.5C 115.5,53.8333 115.5,50.1667 115.5,46.5 Z"/></g>
<g><path style="opacity:0.289" fill="#c7d7ef" d="M 200.5,46.5 C 201.832,56.8118 202.499,67.4784 202.5,78.5C 202.167,89.1667 201.833,99.8333 201.5,110.5C 200.5,89.1771 200.167,67.8437 200.5,46.5 Z"/></g>
<g><path style="opacity:1" fill="#dfeaf7" d="M 349.5,47.5 C 354.695,47.1795 359.695,47.5128 364.5,48.5C 383.237,49.3895 405.237,51.2228 430.5,54C 436.504,55.1689 442.17,57.0022 447.5,59.5C 444.452,60.2504 442.785,62.2504 442.5,65.5C 441.14,64.8201 439.807,64.1534 438.5,63.5C 438.5,63.1667 438.5,62.8333 438.5,62.5C 438.389,61.8826 438.056,61.3826 437.5,61C 431.756,60.418 426.089,59.418 420.5,58C 392.16,56.5471 363.826,55.2138 335.5,54C 331.236,53.5192 327.236,52.3526 323.5,50.5C 324.025,49.8076 324.692,49.3076 325.5,49C 333.505,48.4997 341.505,47.9997 349.5,47.5 Z"/></g>
<g><path style="opacity:0.288" fill="#e7effa" d="M 241.5,47.5 C 241.833,47.5 242.167,47.5 242.5,47.5C 242.5,48.5 242.5,49.5 242.5,50.5C 245.609,50.7359 248.609,50.4025 251.5,49.5C 251.5,50.5 251.5,51.5 251.5,52.5C 248.167,52.5 244.833,52.5 241.5,52.5C 241.5,50.8333 241.5,49.1667 241.5,47.5 Z"/></g>
<g><path style="opacity:0.445" fill="#88aadd" d="M 65.5,49.5 C 66.3019,50.9516 66.8019,52.6183 67,54.5C 72.7412,53.5251 78.5746,53.1918 84.5,53.5C 84.5,55.1667 84.5,56.8333 84.5,58.5C 84.5,72.1667 84.5,85.8333 84.5,99.5C 83.5039,84.676 83.1706,69.676 83.5,54.5C 77.4549,54.3032 71.4549,54.6365 65.5,55.5C 65.5,53.5 65.5,51.5 65.5,49.5 Z"/></g>
<g><path style="opacity:0.446" fill="#a3bee4" d="M 103.5,45.5 C 103.5,48.5 103.5,51.5 103.5,54.5C 97.7414,54.2143 92.0748,54.5476 86.5,55.5C 91.3958,53.5539 96.7291,52.8872 102.5,53.5C 102.194,50.6146 102.527,47.9479 103.5,45.5 Z"/></g>
<g><path style="opacity:0.996" fill="#a7c2e7" d="M 241.5,47.5 C 244.962,46.5184 248.629,46.185 252.5,46.5C 252.181,51.3633 252.514,56.03 253.5,60.5C 253.44,61.0431 253.107,61.3764 252.5,61.5C 251.548,59.9547 251.215,58.288 251.5,56.5C 248.167,56.5 244.833,56.5 241.5,56.5C 241.5,55.1667 241.5,53.8333 241.5,52.5C 244.833,52.5 248.167,52.5 251.5,52.5C 251.5,51.5 251.5,50.5 251.5,49.5C 249.012,47.6122 246.012,46.9455 242.5,47.5C 242.167,47.5 241.833,47.5 241.5,47.5 Z"/></g>
<g><path style="opacity:0.871" fill="#87a3da" d="M 131.5,54.5 C 131.027,55.9063 130.027,56.573 128.5,56.5C 128.973,55.0937 129.973,54.427 131.5,54.5 Z"/></g>
<g><path style="opacity:0.639" fill="#bacfec" d="M 205.5,43.5 C 206.479,46.6248 206.813,49.9581 206.5,53.5C 212.68,53.6574 218.68,53.6574 224.5,53.5C 224.5,53.8333 224.5,54.1667 224.5,54.5C 223.984,69.8132 223.151,85.1466 222,100.5C 220.517,85.3227 220.017,69.9894 220.5,54.5C 215.5,54.5 210.5,54.5 205.5,54.5C 205.5,50.8333 205.5,47.1667 205.5,43.5 Z"/></g>
<g><path style="opacity:1" fill="#e1ebf8" d="M 274.5,62.5 C 273.752,60.6675 272.752,59.0009 271.5,57.5C 278.321,56.3454 285.321,56.1787 292.5,57C 290.845,58.4443 290.178,60.2776 290.5,62.5C 285.167,62.5 279.833,62.5 274.5,62.5 Z"/></g>
<g><path style="opacity:1" fill="#eef4fc" d="M 297.5,56.5 C 306.506,56.3336 315.506,56.5002 324.5,57C 321.5,57.3333 318.5,57.6667 315.5,58C 314.92,59.3349 314.587,60.5015 314.5,61.5C 308.674,60.1072 303.007,58.4406 297.5,56.5 Z"/></g>
<g><path style="opacity:0.211" fill="#c0d3ed" d="M 79.5,56.5 C 81.1739,71.0401 82.1739,85.8734 82.5,101C 81.5509,101.617 80.7175,101.451 80,100.5C 79.5001,85.8371 79.3334,71.1705 79.5,56.5 Z"/></g>
<g><path style="opacity:0.847" fill="#5a89cf" d="M 150.5,60.5 C 150.5,60.8333 150.5,61.1667 150.5,61.5C 149.038,60.5423 147.705,59.3756 146.5,58C 148.412,57.7207 149.746,58.5541 150.5,60.5 Z"/></g>
<g><path style="opacity:0.456" fill="#9dbae3" d="M 183.5,49.5 C 184.794,50.2899 185.961,51.2899 187,52.5C 187.667,58.5 187.667,64.5 187,70.5C 186.667,65.5 186.333,60.5 186,55.5C 185.345,53.3716 184.511,51.3716 183.5,49.5 Z"/></g>
<g><path style="opacity:1" fill="#e6eef9" d="M 236.5,57.5 C 236.5,59.1667 236.5,60.8333 236.5,62.5C 233.5,62.5 230.5,62.5 227.5,62.5C 227.5,60.8333 227.5,59.1667 227.5,57.5C 230.5,57.5 233.5,57.5 236.5,57.5 Z"/></g>
<g><path style="opacity:1" fill="#dee9f7" d="M 241.5,56.5 C 244.833,56.5 248.167,56.5 251.5,56.5C 251.215,58.288 251.548,59.9547 252.5,61.5C 253.107,61.3764 253.44,61.0431 253.5,60.5C 255.44,57.4482 258.273,56.1149 262,56.5C 265.706,55.9311 268.206,57.2644 269.5,60.5C 266.913,61.8164 263.913,62.483 260.5,62.5C 254.166,62.9002 247.833,63.2335 241.5,63.5C 241.5,61.1667 241.5,58.8333 241.5,56.5 Z"/></g>
<g><path style="opacity:0.016" fill="#d2dff2" d="M 86.5,55.5 C 86.6666,69.504 86.4999,83.504 86,97.5C 85.7216,98.4158 85.2216,99.0825 84.5,99.5C 84.5,85.8333 84.5,72.1667 84.5,58.5C 85.1667,57.5 85.8333,56.5 86.5,55.5 Z"/></g>
<g><path style="opacity:0.659" fill="#8ca8dc" d="M 156.5,52.5 C 156.326,54.861 155.993,57.1944 155.5,59.5C 153.821,59.7148 152.821,59.0481 152.5,57.5C 153.117,57.6107 153.617,57.944 154,58.5C 154.24,56.1484 155.073,54.1484 156.5,52.5 Z"/></g>
<g><path style="opacity:1" fill="#bfd3ee" d="M 316.5,54.5 C 319.8,55.093 323.134,55.7597 326.5,56.5C 327.801,58.444 328.801,60.444 329.5,62.5C 331.748,71.8292 335.748,80.3292 341.5,88C 347.389,91.3892 353.722,93.3892 360.5,94C 368.164,93.9448 375.831,93.9448 383.5,94C 381.292,94.1909 379.292,94.6909 377.5,95.5C 372.167,95.5 366.833,95.5 361.5,95.5C 355.158,95.6662 348.825,95.4995 342.5,95C 338.71,94.7703 335.376,93.437 332.5,91C 327.178,84.1935 323.011,76.6935 320,68.5C 318.334,66.0043 316.5,63.671 314.5,61.5C 314.587,60.5015 314.92,59.3349 315.5,58C 318.5,57.6667 321.5,57.3333 324.5,57C 315.506,56.5002 306.506,56.3336 297.5,56.5C 303.833,55.8333 310.167,55.1667 316.5,54.5 Z"/></g>
<g><path style="opacity:0.601" fill="#89a9dd" d="M 119.5,58.5 C 120.748,59.3339 121.415,60.6672 121.5,62.5C 121.167,63.8333 120.833,65.1667 120.5,66.5C 119.52,63.9135 119.187,61.2469 119.5,58.5 Z"/></g>
<g><path style="opacity:0.949" fill="#eaf1fb" d="M 451.5,58.5 C 452.71,58.9321 453.71,59.5987 454.5,60.5C 452.434,64.6005 449.434,67.9338 445.5,70.5C 443.811,66.3048 444.478,62.6381 447.5,59.5C 449.099,59.7678 450.432,59.4345 451.5,58.5 Z"/></g>
<g><path style="opacity:0.791" fill="#89a6dc" d="M 187.5,81.5 C 187.167,81.5 186.833,81.5 186.5,81.5C 186.5,78.8333 186.5,76.1667 186.5,73.5C 181.533,74.038 176.866,73.3713 172.5,71.5C 172.334,67.1539 172.501,62.8206 173,58.5C 174.135,62.9031 174.968,67.4031 175.5,72C 179.486,72.4988 183.486,72.6655 187.5,72.5C 187.5,75.5 187.5,78.5 187.5,81.5 Z"/></g>
<g><path style="opacity:1" fill="#a4c0e5" d="M 333.5,118.5 C 333.5,119.167 333.5,119.833 333.5,120.5C 333.5,121.167 333.167,121.5 332.5,121.5C 325.492,121.666 318.492,121.5 311.5,121C 312.167,120.333 312.833,119.667 313.5,119C 310.496,119.999 309.329,118.832 310,115.5C 311.081,117.767 312.581,117.934 314.5,116C 313.584,115.626 312.75,115.126 312,114.5C 311.149,111.947 311.482,109.614 313,107.5C 314.586,109.67 315.92,112.004 317,114.5C 317.429,112.331 316.929,110.331 315.5,108.5C 316.355,107.707 317.189,108.04 318,109.5C 320.105,106.893 320.938,103.893 320.5,100.5C 318.654,100.778 317.32,100.111 316.5,98.5C 317.758,96.3516 317.758,94.1849 316.5,92C 318.112,90.518 319.112,88.6847 319.5,86.5C 315.5,85.8333 315.5,85.1667 319.5,84.5C 319.783,74.6126 315.116,70.1126 305.5,71C 301.806,72.9128 300.139,75.7461 300.5,79.5C 300.154,80.6956 299.654,80.6956 299,79.5C 298.529,81.2464 297.862,82.913 297,84.5C 296.5,92.8267 296.334,101.16 296.5,109.5C 296.19,110.738 295.69,110.738 295,109.5C 293.114,97.8117 293.114,86.145 295,74.5C 296.787,70.4234 298.954,66.59 301.5,63C 307.495,60.3819 312.662,61.5485 317,66.5C 319.194,69.5544 320.861,72.8878 322,76.5C 324.663,89.7361 325.163,103.069 323.5,116.5C 327.329,115.931 330.663,116.598 333.5,118.5 Z"/></g>
<g><path style="opacity:1" fill="#a9c3e7" d="M 269.5,60.5 C 270.966,61.347 271.8,62.6803 272,64.5C 272.942,77.5701 272.609,90.5701 271,103.5C 268.86,109.487 264.693,111.654 258.5,110C 257.257,108.846 256.257,107.512 255.5,106C 254.552,105.517 253.552,105.351 252.5,105.5C 252.5,107.167 252.5,108.833 252.5,110.5C 248.833,110.5 245.167,110.5 241.5,110.5C 241.5,94.8333 241.5,79.1667 241.5,63.5C 247.833,63.2335 254.166,62.9002 260.5,62.5C 263.913,62.483 266.913,61.8164 269.5,60.5 Z"/></g>
<g><path style="opacity:0.997" fill="#aac4e7" d="M 217.5,79.5 C 214.465,80.9558 213.131,83.1225 213.5,86C 212.151,86.7724 211.318,87.9391 211,89.5C 210.501,85.8484 210.335,82.1817 210.5,78.5C 210.334,74.4862 210.501,70.4862 211,66.5C 212.401,64.8078 214.234,64.1412 216.5,64.5C 217.112,60.1238 215.946,59.4571 213,62.5C 212.53,61.4232 212.697,60.4232 213.5,59.5C 214.289,59.2172 214.956,58.7172 215.5,58C 212.773,57.1816 210.106,57.3483 207.5,58.5C 207.738,63.7379 207.738,69.0712 207.5,74.5C 207.5,75.5 207.5,76.5 207.5,77.5C 207.5,81.8333 207.5,86.1667 207.5,90.5C 207.5,94.1667 207.5,97.8333 207.5,101.5C 206.504,86.676 206.171,71.676 206.5,56.5C 210.167,56.5 213.833,56.5 217.5,56.5C 217.5,64.1667 217.5,71.8333 217.5,79.5 Z M 213.5,59.5 C 212.504,59.4142 211.671,59.7476 211,60.5C 210.425,65.466 209.258,70.1327 207.5,74.5C 207.738,69.0712 207.738,63.7379 207.5,58.5C 210.106,57.3483 212.773,57.1816 215.5,58C 214.956,58.7172 214.289,59.2172 213.5,59.5 Z"/></g>
<g><path style="opacity:0.884" fill="#e9f0f9" d="M 213.5,59.5 C 212.697,60.4232 212.53,61.4232 213,62.5C 215.946,59.4571 217.112,60.1238 216.5,64.5C 214.234,64.1412 212.401,64.8078 211,66.5C 210.501,70.4862 210.334,74.4862 210.5,78.5C 209.662,78.8417 209.328,79.5084 209.5,80.5C 208.833,79.5 208.167,78.5 207.5,77.5C 207.5,76.5 207.5,75.5 207.5,74.5C 209.258,70.1327 210.425,65.466 211,60.5C 211.671,59.7476 212.504,59.4142 213.5,59.5 Z"/></g>
<g><path style="opacity:1" fill="#205dbd" d="M 253.5,64.5 C 255.92,64.2924 258.253,64.6258 260.5,65.5C 261.666,76.8187 261.832,88.152 261,99.5C 258.822,103.065 256.156,103.399 253,100.5C 252.189,88.4242 252.355,76.4242 253.5,64.5 Z"/></g>
<g><path style="opacity:1" fill="#b0c8e9" d="M 322.5,45.5 C 331.155,44.9175 339.822,44.5841 348.5,44.5C 356.84,44.3336 365.173,44.5003 373.5,45C 365.326,45.6119 357.326,46.4452 349.5,47.5C 341.505,47.9997 333.505,48.4997 325.5,49C 324.692,49.3076 324.025,49.8076 323.5,50.5C 327.236,52.3526 331.236,53.5192 335.5,54C 363.826,55.2138 392.16,56.5471 420.5,58C 426.089,59.418 431.756,60.418 437.5,61C 438.056,61.3826 438.389,61.8826 438.5,62.5C 422.134,62.1508 405.801,62.6508 389.5,64C 388.692,64.3076 388.025,64.8076 387.5,65.5C 389.781,70.1283 393.448,72.1283 398.5,71.5C 411.172,70.9581 423.838,70.2915 436.5,69.5C 437.747,67.677 438.414,65.677 438.5,63.5C 439.807,64.1534 441.14,64.8201 442.5,65.5C 442.785,62.2504 444.452,60.2504 447.5,59.5C 444.478,62.6381 443.811,66.3048 445.5,70.5C 449.434,67.9338 452.434,64.6005 454.5,60.5C 455.885,61.5736 457.051,62.9069 458,64.5C 459.213,68.8505 461.046,72.8505 463.5,76.5C 463.5,79.5 463.5,82.5 463.5,85.5C 465.144,85.7135 466.644,85.3802 468,84.5C 468.494,86.1341 468.66,87.8008 468.5,89.5C 438.244,90.7415 407.911,92.7415 377.5,95.5C 379.292,94.6909 381.292,94.1909 383.5,94C 375.831,93.9448 368.164,93.9448 360.5,94C 353.722,93.3892 347.389,91.3892 341.5,88C 335.748,80.3292 331.748,71.8292 329.5,62.5C 333.226,62.8226 336.893,62.4892 340.5,61.5C 336.369,59.0706 332.202,56.7372 328,54.5C 322.343,53.4576 316.843,51.9576 311.5,50C 305.837,44.4343 301.337,38.2677 298,31.5C 301.882,35.7139 305.382,40.2139 308.5,45C 313.098,46.8258 317.764,46.9925 322.5,45.5 Z M 350.5,62.5 C 356.898,62.2427 363.231,62.7427 369.5,64C 372.29,64.5609 374.623,65.8942 376.5,68C 375.833,69.3333 374.833,70.3333 373.5,71C 367.167,71.6667 360.833,71.6667 354.5,71C 351.408,69.5768 349.408,67.2435 348.5,64C 349.416,63.7216 350.082,63.2216 350.5,62.5 Z"/></g>
<g><path style="opacity:1" fill="#9ebce4" d="M 438.5,62.5 C 438.5,62.8333 438.5,63.1667 438.5,63.5C 438.414,65.677 437.747,67.677 436.5,69.5C 423.838,70.2915 411.172,70.9581 398.5,71.5C 393.448,72.1283 389.781,70.1283 387.5,65.5C 388.025,64.8076 388.692,64.3076 389.5,64C 405.801,62.6508 422.134,62.1508 438.5,62.5 Z"/></g>
<g><path style="opacity:0.886" fill="#2a6ac2" d="M 100.5,67.5 C 99.5041,81.6569 99.1707,95.9903 99.5,110.5C 98.5032,92.6744 98.1699,74.6744 98.5,56.5C 99.552,56.3505 100.552,56.5172 101.5,57C 100.544,60.3936 100.211,63.8936 100.5,67.5 Z"/></g>
<g><path style="opacity:0.606" fill="#97b3e1" d="M 116.5,67.5 C 117.829,72.9597 118.496,78.793 118.5,85C 118.167,90.8333 117.833,96.6667 117.5,102.5C 116.501,90.8523 116.168,79.1857 116.5,67.5 Z"/></g>
<g><path style="opacity:0.55" fill="#9bb7e2" d="M 100.5,67.5 C 101.166,74.492 101.5,81.6587 101.5,89C 101.497,96.5325 100.831,103.699 99.5,110.5C 99.1707,95.9903 99.5041,81.6569 100.5,67.5 Z"/></g>
<g><path style="opacity:0.344" fill="#b7cdeb" d="M 134.5,65.5 C 135.239,65.369 135.906,65.5357 136.5,66C 135.528,78.0304 135.195,89.8638 135.5,101.5C 134.914,101.291 134.414,100.957 134,100.5C 133.189,88.7574 133.356,77.0907 134.5,65.5 Z"/></g>
<g><path style="opacity:0.422" fill="#8baede" d="M 138.5,66.5 C 139.117,66.6107 139.617,66.944 140,67.5C 140.167,72.8333 140.333,78.1667 140.5,83.5C 140.647,89.3338 140.147,95.0005 139,100.5C 137.853,95.0005 137.353,89.3338 137.5,83.5C 137.522,77.7552 137.855,72.0885 138.5,66.5 Z"/></g>
<g><path style="opacity:1" fill="#a2bee5" d="M 255.5,66.5 C 256.5,66.5 257.5,66.5 258.5,66.5C 258.5,77.8333 258.5,89.1667 258.5,100.5C 257.5,100.5 256.5,100.5 255.5,100.5C 255.5,89.1667 255.5,77.8333 255.5,66.5 Z"/></g>
<g><path style="opacity:0.052" fill="#ebf2fb" d="M 342.5,61.5 C 353.296,60.9325 363.963,61.7658 374.5,64C 376.833,66.3333 379.167,68.6667 381.5,71C 371.856,72.3318 362.19,72.9984 352.5,73C 350.257,70.5122 348.257,67.8456 346.5,65C 344.913,64.1376 343.246,63.4709 341.5,63C 342.056,62.6174 342.389,62.1174 342.5,61.5 Z M 350.5,62.5 C 350.082,63.2216 349.416,63.7216 348.5,64C 349.408,67.2435 351.408,69.5768 354.5,71C 360.833,71.6667 367.167,71.6667 373.5,71C 374.833,70.3333 375.833,69.3333 376.5,68C 374.623,65.8942 372.29,64.5609 369.5,64C 363.231,62.7427 356.898,62.2427 350.5,62.5 Z"/></g>
<g><path style="opacity:0.255" fill="#bbceeb" d="M 65.5,85.5 C 65.1667,85.5 64.8333,85.5 64.5,85.5C 62.0778,72.9205 61.0778,60.2538 61.5,47.5C 63.7331,60.0623 65.0664,72.7289 65.5,85.5 Z"/></g>
<g><path style="opacity:0.425" fill="#afc7e8" d="M 150.5,60.5 C 152.173,61.343 153.34,62.6763 154,64.5C 154.667,77.1667 154.667,89.8333 154,102.5C 153.327,105.808 151.494,107.642 148.5,108C 150.894,106.048 152.394,103.548 153,100.5C 153.667,89.1667 153.667,77.8333 153,66.5C 152.153,64.8068 151.32,63.1401 150.5,61.5C 150.5,61.1667 150.5,60.8333 150.5,60.5 Z"/></g>
<g><path style="opacity:1" fill="#e0eaf8" d="M 448.5,70.5 C 450.857,70.3367 453.19,70.5034 455.5,71C 457.602,72.7328 457.935,74.7328 456.5,77C 454.2,77.6583 451.867,78.1583 449.5,78.5C 445.075,76.4598 440.409,75.2931 435.5,75C 438.167,74.6667 440.833,74.3333 443.5,74C 444.887,72.317 446.553,71.1504 448.5,70.5 Z"/></g>
<g><path style="opacity:0.241" fill="#cddcf1" d="M 168.5,57.5 C 169.364,71.7388 169.864,86.0721 170,100.5C 169.333,99.8333 168.667,99.1667 168,98.5C 167.186,84.7584 167.353,71.0917 168.5,57.5 Z"/></g>
<g><path style="opacity:1" fill="#afc7e9" d="M 236.5,56.5 C 236.5,56.8333 236.5,57.1667 236.5,57.5C 233.5,57.5 230.5,57.5 227.5,57.5C 227.5,59.1667 227.5,60.8333 227.5,62.5C 230.5,62.5 233.5,62.5 236.5,62.5C 236.5,78.1667 236.5,93.8333 236.5,109.5C 233.167,109.5 229.833,109.5 226.5,109.5C 226.5,108.167 226.5,106.833 226.5,105.5C 224.801,105.527 223.467,106.194 222.5,107.5C 222.635,105.446 221.968,103.779 220.5,102.5C 223.238,103.035 225.072,102.035 226,99.5C 226.5,85.1705 226.667,70.8372 226.5,56.5C 229.833,56.5 233.167,56.5 236.5,56.5 Z"/></g>
<g><path style="opacity:1" fill="#e3ecf8" d="M 332.5,121.5 C 322.167,122.833 311.833,122.833 301.5,121.5C 302.552,121.649 303.552,121.483 304.5,121C 300.689,117.85 298.023,114.017 296.5,109.5C 296.334,101.16 296.5,92.8267 297,84.5C 297.862,82.913 298.529,81.2464 299,79.5C 299.654,80.6956 300.154,80.6956 300.5,79.5C 300.139,75.7461 301.806,72.9128 305.5,71C 315.116,70.1126 319.783,74.6126 319.5,84.5C 315.5,85.1667 315.5,85.8333 319.5,86.5C 319.112,88.6847 318.112,90.518 316.5,92C 317.758,94.1849 317.758,96.3516 316.5,98.5C 317.32,100.111 318.654,100.778 320.5,100.5C 320.938,103.893 320.105,106.893 318,109.5C 317.189,108.04 316.355,107.707 315.5,108.5C 316.929,110.331 317.429,112.331 317,114.5C 315.92,112.004 314.586,109.67 313,107.5C 311.482,109.614 311.149,111.947 312,114.5C 312.75,115.126 313.584,115.626 314.5,116C 312.581,117.934 311.081,117.767 310,115.5C 309.329,118.832 310.496,119.999 313.5,119C 312.833,119.667 312.167,120.333 311.5,121C 318.492,121.5 325.492,121.666 332.5,121.5 Z"/></g>
<g><path style="opacity:0.725" fill="#d2e0f3" d="M 348.5,75.5 C 349.919,74.5489 351.585,74.2155 353.5,74.5C 353.452,77.2919 354.785,79.1253 357.5,80C 371.167,80.3333 384.833,80.6667 398.5,81C 383.853,82.3212 369.186,82.6545 354.5,82C 351.77,80.3217 349.77,78.155 348.5,75.5 Z"/></g>
<g><path style="opacity:1" fill="#e8eff9" d="M 463.5,76.5 C 466.498,78.5031 468.831,81.1697 470.5,84.5C 469.863,92.296 469.196,99.9626 468.5,107.5C 468.5,102.167 468.5,96.8333 468.5,91.5C 468.5,90.8333 468.5,90.1667 468.5,89.5C 468.66,87.8008 468.494,86.1341 468,84.5C 466.644,85.3802 465.144,85.7135 463.5,85.5C 463.5,82.5 463.5,79.5 463.5,76.5 Z"/></g>
<g><path style="opacity:0.235" fill="#bccfec" d="M 48.5,56.5 C 49.7095,67.7125 49.3762,79.0458 47.5,90.5C 46.7851,79.1603 47.1185,67.827 48.5,56.5 Z"/></g>
<g><path style="opacity:0.786" fill="#80a0da" d="M 186.5,81.5 C 186.833,81.5 187.167,81.5 187.5,81.5C 183.435,82.1933 179.268,82.8599 175,83.5C 173.247,103.346 172.413,103.346 172.5,83.5C 176.866,81.6287 181.533,80.962 186.5,81.5 Z"/></g>
<g><path style="opacity:0.369" fill="#759cd7" d="M 50.5,81.5 C 51.7479,82.3339 52.4146,83.6672 52.5,85.5C 52.1667,86.8333 51.8333,88.1667 51.5,89.5C 50.52,86.9135 50.1866,84.2469 50.5,81.5 Z"/></g>
<g><path style="opacity:0.667" fill="#f9fbfd" d="M 209.5,89.5 C 209.822,95.358 209.489,101.025 208.5,106.5C 207.962,104.883 207.629,103.216 207.5,101.5C 207.5,97.8333 207.5,94.1667 207.5,90.5C 208.167,90.1667 208.833,89.8333 209.5,89.5 Z"/></g>
<g><path style="opacity:1" fill="#9fbde4" d="M 468.5,89.5 C 468.5,90.1667 468.5,90.8333 468.5,91.5C 466.554,93.734 465.387,96.4006 465,99.5C 463.959,101.585 462.459,103.252 460.5,104.5C 459.702,102.922 459.202,101.256 459,99.5C 454.993,100.941 450.826,101.774 446.5,102C 423.83,103.567 401.163,105.067 378.5,106.5C 378.5,107.833 378.5,109.167 378.5,110.5C 371.313,107.319 365.647,102.319 361.5,95.5C 366.833,95.5 372.167,95.5 377.5,95.5C 407.911,92.7415 438.244,90.7415 468.5,89.5 Z"/></g>
<g><path style="opacity:0.267" fill="#a5bee5" d="M 65.5,85.5 C 66.3195,92.3439 66.9861,99.3439 67.5,106.5C 68.782,107.708 68.782,109.042 67.5,110.5C 66.914,110.291 66.414,109.957 66,109.5C 65.4048,101.835 64.9048,94.1682 64.5,86.5C 65.1667,86.5 65.5,86.1667 65.5,85.5 Z"/></g>
<g><path style="opacity:1" fill="#dbe6f6" d="M 210.5,78.5 C 210.335,82.1817 210.501,85.8484 211,89.5C 211.318,87.9391 212.151,86.7724 213.5,86C 213.131,83.1225 214.465,80.9558 217.5,79.5C 217.334,86.5079 217.5,93.5079 218,100.5C 218.708,101.381 219.542,102.047 220.5,102.5C 221.968,103.779 222.635,105.446 222.5,107.5C 221.308,109.922 219.308,110.922 216.5,110.5C 212.971,110.736 210.305,109.403 208.5,106.5C 209.489,101.025 209.822,95.358 209.5,89.5C 209.5,86.5 209.5,83.5 209.5,80.5C 209.328,79.5084 209.662,78.8417 210.5,78.5 Z"/></g>
<g><path style="opacity:1" fill="#709bd7" d="M 236.5,56.5 C 237.497,74.3256 237.83,92.3256 237.5,110.5C 233.629,110.815 229.962,110.482 226.5,109.5C 229.833,109.5 233.167,109.5 236.5,109.5C 236.5,93.8333 236.5,78.1667 236.5,62.5C 236.5,60.8333 236.5,59.1667 236.5,57.5C 236.5,57.1667 236.5,56.8333 236.5,56.5 Z"/></g>
<g><path style="opacity:0.999" fill="#afc7e9" d="M 282.5,25.5 C 284.716,26.2026 286.549,27.5359 288,29.5C 291.129,34.9261 294.629,40.0928 298.5,45C 303.71,49.5769 309.71,52.7435 316.5,54.5C 310.167,55.1667 303.833,55.8333 297.5,56.5C 303.007,58.4406 308.674,60.1072 314.5,61.5C 316.5,63.671 318.334,66.0043 320,68.5C 323.011,76.6935 327.178,84.1935 332.5,91C 335.376,93.437 338.71,94.7703 342.5,95C 348.825,95.4995 355.158,95.6662 361.5,95.5C 365.647,102.319 371.313,107.319 378.5,110.5C 378.5,109.167 378.5,107.833 378.5,106.5C 401.163,105.067 423.83,103.567 446.5,102C 450.826,101.774 454.993,100.941 459,99.5C 459.202,101.256 459.702,102.922 460.5,104.5C 462.459,103.252 463.959,101.585 465,99.5C 465.387,96.4006 466.554,93.734 468.5,91.5C 468.5,96.8333 468.5,102.167 468.5,107.5C 447.056,105.575 425.722,106.409 404.5,110C 396.507,110.5 388.507,110.666 380.5,110.5C 380.5,111.833 380.5,113.167 380.5,114.5C 373.668,114.951 367.002,115.617 360.5,116.5C 359.833,116.5 359.167,116.5 358.5,116.5C 349.897,115.912 341.564,116.578 333.5,118.5C 330.663,116.598 327.329,115.931 323.5,116.5C 325.163,103.069 324.663,89.7361 322,76.5C 320.861,72.8878 319.194,69.5544 317,66.5C 312.662,61.5485 307.495,60.3819 301.5,63C 298.954,66.59 296.787,70.4234 295,74.5C 293.114,86.145 293.114,97.8117 295,109.5C 295.69,110.738 296.19,110.738 296.5,109.5C 298.023,114.017 300.689,117.85 304.5,121C 303.552,121.483 302.552,121.649 301.5,121.5C 300.038,120.542 298.705,119.376 297.5,118C 278.827,117.4 260.16,117.066 241.5,117C 239.833,118 238.167,119 236.5,120C 229.5,120.667 222.5,120.667 215.5,120C 211.526,117.865 208.859,114.699 207.5,110.5C 209.196,110.685 210.529,111.519 211.5,113C 215.572,113.956 219.405,113.456 223,111.5C 234,112.833 245,112.833 256,111.5C 264.672,115.048 270.672,112.382 274,103.5C 274.5,89.8374 274.667,76.1707 274.5,62.5C 279.833,62.5 285.167,62.5 290.5,62.5C 290.178,60.2776 290.845,58.4443 292.5,57C 285.321,56.1787 278.321,56.3454 271.5,57.5C 269.728,55.7104 267.728,54.3771 265.5,53.5C 266.5,53.5 267.5,53.5 268.5,53.5C 271.276,53.9111 271.943,53.0777 270.5,51C 273.475,47.006 276.975,46.506 281,49.5C 284.032,49.2329 286.699,48.2329 289,46.5C 289.667,44.1667 289.667,41.8333 289,39.5C 287.398,37.6313 286.398,35.6313 286,33.5C 287.912,35.6572 289.579,37.9906 291,40.5C 291.667,39.1667 291.667,37.8333 291,36.5C 288.203,32.7012 285.036,29.2012 281.5,26C 281.728,25.6012 282.062,25.4346 282.5,25.5 Z"/></g>
<g><path style="opacity:1" fill="#b3caea" d="M 307.5,93.5 C 309.167,93.5 310.833,93.5 312.5,93.5C 312.662,95.5273 312.495,97.5273 312,99.5C 310.667,100.833 309.333,100.833 308,99.5C 307.505,97.5273 307.338,95.5273 307.5,93.5 Z"/></g>
<g><path style="opacity:1" fill="#bfd2ed" d="M 306.5,71.5 C 307.289,71.7828 307.956,72.2828 308.5,73C 307.596,78.6711 308.43,78.5044 311,72.5C 311.003,75.0324 310.503,77.5324 309.5,80C 309.509,81.4038 310.009,82.5704 311,83.5C 310.907,80.0439 311.907,77.0439 314,74.5C 315.236,75.3992 316.07,76.5659 316.5,78C 314.831,80.3678 313.164,82.7011 311.5,85C 312.711,85.8928 312.711,86.7261 311.5,87.5C 308.543,82.601 306.876,77.2677 306.5,71.5 Z"/></g>
<g><path style="opacity:0.318" fill="#9bb8e2" d="M 186.5,84.5 C 187.654,90.987 187.821,97.6536 187,104.5C 186.268,106.923 184.768,108.09 182.5,108C 184.317,106.2 185.484,104.034 186,101.5C 186.499,95.8431 186.666,90.1764 186.5,84.5 Z"/></g>
<g><path style="opacity:0.078" fill="#bdcfec" d="M 157.5,106.5 C 156.833,106.5 156.167,106.5 155.5,106.5C 156.167,103.833 156.833,103.833 157.5,106.5 Z"/></g>
<g><path style="opacity:0.267" fill="#b2c8e9" d="M 44.5,100.5 C 45.7773,101.694 46.4439,103.36 46.5,105.5C 46.1667,107.167 45.8333,108.833 45.5,110.5C 44.513,107.232 44.1796,103.898 44.5,100.5 Z"/></g>
<g><path style="opacity:1" fill="#aac4e7" d="M 453.5,109.5 C 451.5,112.994 448.5,115.16 444.5,116C 437.833,116.667 431.167,116.667 424.5,116C 422.416,115.303 420.749,114.136 419.5,112.5C 419.119,111.069 418.119,110.236 416.5,110C 427.479,108.925 438.479,108.092 449.5,107.5C 451.333,107.585 452.666,108.252 453.5,109.5 Z"/></g>
<g><path style="opacity:0.557" fill="#9eb8e3" d="M 52.5,102.5 C 54.1181,105.171 54.7847,108.171 54.5,111.5C 53.087,108.781 52.4203,105.781 52.5,102.5 Z"/></g>
<g><path style="opacity:0.388" fill="#85a8dc" d="M 84.5,106.5 C 86.8852,107.867 86.5518,109.201 83.5,110.5C 83.1667,110.333 82.8333,110.167 82.5,110C 83.8228,109.184 84.4894,108.017 84.5,106.5 Z"/></g>
<g><path style="opacity:0.031" fill="#b9cceb" d="M 154.5,107.5 C 154.5,108.833 153.833,109.5 152.5,109.5C 152.833,108.5 153.5,107.833 154.5,107.5 Z"/></g>
<g><path style="opacity:0.471" fill="#98b0e0" d="M 159.5,108.5 C 161.027,108.427 162.027,109.094 162.5,110.5C 160.973,110.573 159.973,109.906 159.5,108.5 Z"/></g>
<g><path style="opacity:0.314" fill="#a6c0e5" d="M 187.5,111.5 C 186.833,111.167 186.167,110.833 185.5,110.5C 186.988,107.814 187.655,108.147 187.5,111.5 Z"/></g>
<g><path style="opacity:0.925" fill="#d2dff3" d="M 468.5,107.5 C 468.38,108.586 467.713,109.253 466.5,109.5C 462.116,108.223 457.782,108.223 453.5,109.5C 452.666,108.252 451.333,107.585 449.5,107.5C 438.479,108.092 427.479,108.925 416.5,110C 418.119,110.236 419.119,111.069 419.5,112.5C 409.918,112.759 400.418,113.426 391,114.5C 390.586,114.043 390.086,113.709 389.5,113.5C 380.01,116.02 370.343,117.02 360.5,116.5C 367.002,115.617 373.668,114.951 380.5,114.5C 380.5,113.167 380.5,111.833 380.5,110.5C 388.507,110.666 396.507,110.5 404.5,110C 425.722,106.409 447.056,105.575 468.5,107.5 Z"/></g>
<g><path style="opacity:0.455" fill="#a1bbe4" d="M 32.5,100.5 C 32.2065,104.437 32.5399,108.27 33.5,112C 38.4889,112.499 43.4889,112.666 48.5,112.5C 47.931,108.671 48.5977,105.337 50.5,102.5C 50.2756,106.179 49.9422,109.846 49.5,113.5C 43.8236,113.666 38.1569,113.499 32.5,113C 31.8333,112.333 31.1667,111.667 30.5,111C 31.1352,107.397 31.8018,103.897 32.5,100.5 Z"/></g>
<g><path style="opacity:0.472" fill="#8badde" d="M 72.5,111.5 C 67.122,113.542 61.4553,114.042 55.5,113C 54.944,112.617 54.6107,112.117 54.5,111.5C 60.8226,112.743 66.8226,112.743 72.5,111.5 Z"/></g>
<g><path style="opacity:0.463" fill="#9ab8e2" d="M 105.5,110.5 C 104.596,111.209 104.263,112.209 104.5,113.5C 98.077,113.791 91.7436,113.458 85.5,112.5C 91.2512,112.386 97.2512,112.386 103.5,112.5C 103.34,110.801 103.506,109.134 104,107.5C 105.039,108.244 105.539,109.244 105.5,110.5 Z"/></g>
<g><path style="opacity:0.496" fill="#a0bce3" d="M 207.5,110.5 C 206.596,111.209 206.263,112.209 206.5,113.5C 200.491,113.666 194.491,113.499 188.5,113C 187.944,112.617 187.611,112.117 187.5,111.5C 193.441,112.413 199.441,112.746 205.5,112.5C 205.138,107.644 205.804,106.978 207.5,110.5 Z"/></g>
<g><path style="opacity:0.492" fill="#e4ecf7" d="M 358.5,116.5 C 351.345,117.329 344.011,117.829 336.5,118C 335.627,119.045 334.627,119.878 333.5,120.5C 333.5,119.833 333.5,119.167 333.5,118.5C 341.564,116.578 349.897,115.912 358.5,116.5 Z"/></g>
</svg>
